<svg width="220" height="220" viewBox="0 0 220 220" fill="none" xmlns="http://www.w3.org/2000/svg">
<g clip-path="url(#clip0_615_2330)">
<path d="M203.266 166.987H35.7322C31.1446 166.987 26.5703 165.949 26.5703 163.756V159.862L30.0142 158.072C35.0051 155.477 45.2286 150.272 48.864 148.759L50.8911 147.915V49.265C50.8911 48.7438 51.0981 48.2439 51.4667 47.8754C51.8352 47.5069 52.3351 47.2998 52.8563 47.2998H191.769C192.027 47.2995 192.282 47.3499 192.521 47.4484C192.759 47.5468 192.976 47.6913 193.158 47.8735C193.341 48.0557 193.486 48.2721 193.585 48.5103C193.683 48.7485 193.734 49.0039 193.734 49.2618V147.402L196.094 148.756C199.73 150.27 209.953 155.478 214.944 158.07L218.388 159.86V163.754C218.388 165.947 213.816 166.985 208.016 166.985H40.482" fill="white"/>
<path d="M58.6719 56.2222V75.6256C58.6718 75.7848 58.7074 75.9419 58.7759 76.0855C58.8445 76.2292 58.9443 76.3556 59.0681 76.4557C59.1919 76.5557 59.3365 76.6268 59.4913 76.6637C59.6461 76.7006 59.8072 76.7025 59.9628 76.669C77.4704 72.8672 108.604 66.1431 109.124 66.0402C112.005 65.4721 114.472 67.4709 114.925 69.2451C116.878 76.899 126.073 118.183 127.777 127.621C128.104 129.429 127.216 132.805 124.489 133.466C122.751 133.888 114.636 135.637 104.866 137.716C104.609 137.771 104.381 137.919 104.226 138.132C104.071 138.345 104.001 138.608 104.028 138.87C104.055 139.132 104.179 139.375 104.374 139.551C104.57 139.728 104.823 139.826 105.087 139.826C135.768 139.826 171.607 139.826 184.441 139.82C184.724 139.82 184.995 139.707 185.195 139.507C185.395 139.307 185.508 139.036 185.508 138.753V56.2222C185.508 55.9392 185.395 55.6678 185.195 55.4678C184.995 55.2677 184.724 55.1553 184.441 55.1553H59.7388C59.4558 55.1553 59.1844 55.2677 58.9844 55.4678C58.7843 55.6678 58.6719 55.9392 58.6719 56.2222Z" fill="#ECECEC"/>
<path d="M195.009 145.861V50.5055C195.009 49.3746 195.068 48.2555 194.334 47.2985C194.02 46.8983 193.619 46.575 193.162 46.3532C192.704 46.1313 192.202 46.0168 191.694 46.0182C190.37 45.9782 189.038 46.0182 187.713 46.0182H56.3678C55.2028 46.0182 54.0276 45.9739 52.8626 46.0182C52.005 46.0327 51.1865 46.3794 50.5793 46.9852C49.9722 47.591 49.6238 48.4088 49.6075 49.2663C49.5942 49.6126 49.6075 49.9598 49.6075 50.3082V77.0699C49.6075 78.7178 52.168 78.7204 52.168 77.0699V50.3082C52.168 49.6243 51.9829 48.6337 52.9266 48.5803C53.3421 48.5569 53.7657 48.5803 54.1812 48.5803H190.405C190.827 48.5803 191.258 48.5585 191.678 48.5803C192.787 48.638 192.449 50.3274 192.449 51.1323V145.861C192.449 147.508 195.009 147.511 195.009 145.861Z" fill="#232323"/>
<path d="M130.608 158.68H114.018C112.37 158.68 112.368 161.241 114.018 161.241H130.608C132.256 161.241 132.259 158.68 130.608 158.68Z" fill="#232323"/>
<path d="M53.3516 160.11C67.2984 160.11 91.5354 160.11 106.231 160.104Z" fill="white"/>
<path d="M53.346 161.39H73.1901H95.3654C98.986 161.39 102.606 161.389 106.227 161.387C107.875 161.387 107.877 158.827 106.227 158.827C99.4343 158.829 92.6418 158.831 85.8493 158.831C78.5069 158.831 71.165 158.831 63.8234 158.831H53.346C51.6988 158.831 51.6956 161.391 53.346 161.391V161.39Z" fill="#232323"/>
<path d="M138.156 160.11C152.103 160.11 193.692 160.11 208.388 160.104Z" fill="white"/>
<path d="M138.157 161.39H163.937H195.36L208.389 161.387C210.037 161.387 210.039 158.827 208.389 158.827C199.618 158.83 190.846 158.831 182.074 158.831C171.65 158.831 161.225 158.831 150.801 158.831H138.159C136.511 158.831 136.508 161.391 138.159 161.391L138.157 161.39Z" fill="#232323"/>
<path d="M53.1562 149.098C69.2614 149.098 172.601 149.098 187.297 149.092Z" fill="white"/>
<path d="M53.1587 150.378H135.885H152.266H166.757H178.329C180.92 150.378 183.511 150.378 186.102 150.378H187.299C188.947 150.378 188.95 147.817 187.299 147.817H180.613H169.83H156.003H53.1587C51.5109 147.817 51.5083 150.378 53.1587 150.378Z" fill="#232323"/>
<path d="M217.405 161.347C217.405 162.08 217.4 162.813 217.405 163.546C217.405 163.636 217.405 163.725 217.405 163.813C217.405 163.853 217.447 163.749 217.375 163.877C217.208 164.105 216.989 164.288 216.735 164.411C215.626 164.953 214.429 165.291 213.2 165.408C211.581 165.625 209.948 165.724 208.315 165.706C207.599 165.706 206.883 165.706 206.167 165.706H52.2134C50.5656 165.706 50.5629 168.267 52.2134 168.267H208.072C209.33 168.267 210.587 168.234 211.84 168.123C214.201 167.914 217.396 167.626 219.13 165.773C220.25 164.574 219.966 162.853 219.966 161.345C219.966 159.698 217.405 159.695 217.405 161.345V161.347Z" fill="#232323"/>
<path d="M195.751 149.991C195.45 149.865 195.981 150.091 196.087 150.138C196.318 150.239 196.548 150.342 196.778 150.446C197.295 150.681 197.81 150.919 198.325 151.163C199.574 151.753 200.817 152.354 202.055 152.967C204.843 154.341 207.62 155.738 210.385 157.159C211.691 157.828 212.995 158.5 214.298 159.176C215.758 159.935 217.054 157.726 215.59 156.965C210.394 154.265 205.178 151.59 199.888 149.08C198.747 148.538 197.6 148.009 196.434 147.522C196.107 147.434 195.758 147.478 195.463 147.646C195.168 147.813 194.951 148.09 194.859 148.416C194.778 148.744 194.825 149.09 194.991 149.383C195.158 149.676 195.431 149.894 195.753 149.991H195.751Z" fill="#232323"/>
<path d="M133.484 102.612C135.074 106.551 136.594 110.522 138.275 114.423C138.386 114.618 138.547 114.78 138.741 114.891C138.936 115.003 139.157 115.06 139.381 115.057C145.274 115.057 151.17 115.083 157.06 115.095C158.162 115.097 159.263 115.099 160.362 115.101C162.009 115.101 162.012 112.54 160.362 112.54C154.566 112.54 148.771 112.514 142.975 112.502C141.777 112.5 140.579 112.498 139.381 112.497L140.486 113.131C140.447 113.06 140.415 112.985 140.39 112.907C140.351 112.64 140.488 113.14 140.373 112.866C140.295 112.678 140.216 112.49 140.138 112.303C139.941 111.827 139.746 111.35 139.551 110.873C139.095 109.752 138.641 108.631 138.191 107.508C137.444 105.65 136.703 103.788 135.951 101.932C135.852 101.61 135.633 101.338 135.341 101.172C135.048 101.006 134.703 100.957 134.376 101.037C134.05 101.129 133.773 101.346 133.605 101.641C133.438 101.936 133.394 102.285 133.482 102.612H133.484Z" fill="#232323"/>
<path d="M143.174 104.546C149.067 104.546 154.96 104.571 160.854 104.584C161.954 104.586 163.055 104.588 164.155 104.59C165.803 104.59 165.806 102.029 164.155 102.029C158.359 102.029 152.564 102.003 146.768 101.991C145.57 101.989 144.372 101.987 143.174 101.986C141.527 101.986 141.524 104.546 143.174 104.546Z" fill="#232323"/>
<path d="M140.873 122.206C147.701 122.206 154.529 122.131 161.354 122.099C161.696 122.099 162.043 122.115 162.384 122.095C162.707 122.061 163.014 121.937 163.271 121.738C163.528 121.538 163.725 121.272 163.839 120.967C164.419 119.832 164.938 118.667 165.393 117.476C166.961 113.681 168.409 109.835 169.878 106.001C170.678 103.916 171.475 101.831 172.292 99.7529C172.601 98.9677 172.913 98.183 173.235 97.4031C173.262 97.338 173.289 97.2735 173.316 97.2089C173.455 96.8707 173.254 97.3508 173.339 97.1518C173.395 97.0222 173.45 96.8921 173.507 96.763C173.603 96.5432 173.701 96.3245 173.807 96.1084L172.701 96.7427C174.504 96.7427 176.306 96.7427 178.109 96.7427C179.757 96.7427 179.759 94.1822 178.109 94.1822C176.306 94.1822 174.504 94.1822 172.701 94.1822C172.477 94.1806 172.257 94.2386 172.063 94.35C171.869 94.4614 171.708 94.6224 171.596 94.8164C170.046 97.9931 168.908 101.411 167.644 104.708C166.044 108.879 164.481 113.068 162.759 117.19C162.72 117.285 162.68 117.38 162.641 117.474C162.77 117.166 162.602 117.564 162.578 117.62C162.507 117.788 162.435 117.955 162.361 118.121C162.216 118.451 162.069 118.78 161.914 119.105C161.802 119.338 161.69 119.573 161.56 119.799C161.509 119.87 161.463 119.945 161.423 120.023C161.346 120.222 161.689 119.741 161.5 119.912L162.407 119.538C156.379 119.538 150.351 119.606 144.323 119.636C143.175 119.642 142.026 119.65 140.877 119.65C139.23 119.65 139.227 122.211 140.877 122.211L140.873 122.206Z" fill="#232323"/>
<path d="M143.254 123.714C142.858 123.706 142.466 123.777 142.099 123.925C141.732 124.072 141.398 124.291 141.118 124.57C140.838 124.849 140.617 125.181 140.468 125.547C140.318 125.913 140.245 126.306 140.25 126.701C140.25 128.564 141.412 129.741 143.254 129.741C145.138 129.741 146.257 128.564 146.257 126.701C146.263 126.305 146.19 125.913 146.041 125.547C145.892 125.18 145.67 124.848 145.39 124.569C145.11 124.29 144.776 124.071 144.409 123.924C144.042 123.777 143.649 123.705 143.254 123.714Z" fill="#232323"/>
<path d="M160.175 123.714C159.78 123.706 159.388 123.777 159.021 123.925C158.654 124.072 158.32 124.291 158.04 124.57C157.76 124.849 157.539 125.181 157.389 125.547C157.24 125.913 157.166 126.306 157.172 126.701C157.172 128.564 158.334 129.741 160.175 129.741C162.06 129.741 163.179 128.564 163.179 126.701C163.185 126.305 163.112 125.913 162.963 125.547C162.814 125.18 162.592 124.848 162.312 124.569C162.032 124.29 161.698 124.071 161.331 123.924C160.964 123.777 160.571 123.705 160.175 123.714Z" fill="#232323"/>
<path d="M152.796 65.0488C151.033 65.0138 149.281 65.3338 147.644 65.9898C146.008 66.6459 144.52 67.6245 143.269 68.8675C142.018 70.1104 141.031 71.5923 140.365 73.2249C139.698 74.8575 139.368 76.6074 139.392 78.3704C139.392 86.6863 144.577 91.9423 152.796 91.9423C161.208 91.9423 166.201 86.6863 166.201 78.3704C166.227 76.6068 165.897 74.856 165.232 73.2226C164.566 71.5891 163.578 70.1065 162.327 68.8632C161.076 67.6199 159.587 66.6414 157.95 65.986C156.312 65.3306 154.559 65.0119 152.796 65.0488Z" fill="#54D061"/>
<path d="M145.979 79.9531C147.268 81.1746 148.57 82.3904 149.911 83.5543C150.157 83.7832 150.48 83.9104 150.816 83.9104C151.152 83.9104 151.476 83.7832 151.722 83.5543C154.639 81.2552 157.421 78.7779 160.271 76.3961C160.508 76.1547 160.641 75.8295 160.641 75.4908C160.641 75.1521 160.508 74.8269 160.271 74.5856C160.027 74.352 159.703 74.2217 159.365 74.2217C159.028 74.2217 158.704 74.352 158.46 74.5856C155.61 76.9674 152.829 79.4447 149.911 81.7433H151.722C150.381 80.5793 149.078 79.3641 147.79 78.1426C146.594 77.0095 144.78 78.8168 145.979 79.9531Z" fill="white"/>
<path d="M1.28125 183.955C2.80743 166.686 -0.51432 157.547 3.36701 140.651C3.81062 138.747 4.89668 137.055 6.44231 135.858C11.3228 132.054 15.8619 130.357 20.7231 126.51C21.1346 126.184 21.5436 125.854 21.95 125.52C23.2532 124.447 26.4726 124.24 28.8272 123.986C30.5118 131.897 32.5821 141.608 33.7349 147.036C37.1489 144.102 40.1826 140.528 43.4846 137.442C45.0487 135.982 47.1814 134.522 49.1658 135.323C50.4994 135.861 51.2852 137.33 51.3822 138.766C51.3986 140.211 51.078 141.64 50.446 142.94C47.5452 149.811 43.8218 153.04 40.4627 159.699C39.0331 162.532 37.9655 165.534 37.2849 168.633C36.4933 172.245 36.2922 175.056 35.2045 177.627C34.0277 181.535 28.6127 185.746 24.1089 190.905" fill="white"/>
<path d="M43.2282 149.091C43.7836 150.082 45.0862 153.017 45.3236 153.691C46.2305 156.271 47.7486 160.589 47.7652 162.114C47.7855 163.999 47.3742 166.035 45.8752 167.177C44.3762 168.32 41.956 168.244 40.792 166.761L40.7061 166.654L40.7989 167.248C41.0801 169.054 40.0889 172.148 39.4915 172.98C39.2068 173.408 38.8129 173.752 38.3506 173.976C37.8882 174.2 37.3743 174.297 36.8621 174.255C35.8289 174.106 35.0484 173.27 34.3838 172.465C33.5387 171.346 32.8644 170.107 32.3828 168.79" fill="white"/>
<path d="M31.1494 169.129C31.558 170.32 32.124 171.453 32.8324 172.495C33.6129 173.668 34.6227 174.82 35.9675 175.336C36.712 175.58 37.5123 175.595 38.2659 175.381C39.0195 175.167 39.692 174.733 40.1972 174.134C40.8832 173.257 41.3682 172.24 41.6177 171.155C42.0541 169.784 42.196 168.335 42.0343 166.905C41.9423 166.579 41.7253 166.302 41.4306 166.135C41.1358 165.967 40.7869 165.923 40.4596 166.011C40.137 166.109 39.8643 166.327 39.6978 166.62C39.5313 166.913 39.4838 167.259 39.565 167.586C39.5325 167.355 39.5522 167.501 39.5602 167.636C39.5663 167.741 39.5691 167.845 39.5688 167.95C39.5688 168.21 39.548 168.469 39.524 168.729C39.501 168.979 39.5496 168.601 39.509 168.853C39.4903 168.971 39.4711 169.088 39.4493 169.205C39.4023 169.46 39.3468 169.713 39.2844 169.964C39.1725 170.421 39.0369 170.872 38.8779 171.315C38.8385 171.426 38.7963 171.535 38.7537 171.644C38.7366 171.689 38.7179 171.733 38.7003 171.777C38.7003 171.773 38.807 171.557 38.7403 171.678C38.6592 171.825 38.5995 171.982 38.5157 172.128C38.3512 172.396 38.1249 172.621 37.8559 172.784C37.7993 172.817 37.4718 172.957 37.6425 172.899C37.5229 172.94 37.4009 172.973 37.2771 172.999C37.4766 172.959 37.188 172.994 37.1171 172.995C37.1075 172.995 36.9063 172.971 37.0333 172.995C37.1507 173.014 36.9117 172.959 36.8893 172.952C36.8285 172.935 36.7666 172.917 36.7079 172.893C36.7362 172.904 36.8503 172.961 36.7234 172.893C36.6103 172.832 36.5015 172.766 36.3932 172.696C36.2747 172.619 36.367 172.684 36.3932 172.703C36.3398 172.663 36.2918 172.619 36.2427 172.576C36.1265 172.474 36.0144 172.367 35.9067 172.256C35.7056 172.05 35.5194 171.829 35.3338 171.612C35.3023 171.574 35.2729 171.535 35.2409 171.498C35.2452 171.503 35.385 171.703 35.3065 171.581C35.2436 171.483 35.17 171.391 35.1049 171.295C34.7926 170.831 34.5058 170.35 34.2455 169.855C34.0999 169.58 33.9612 169.301 33.8337 169.018C33.8092 168.964 33.7846 168.911 33.7612 168.858C33.8102 168.972 33.7974 168.951 33.7612 168.848C33.7142 168.717 33.6651 168.588 33.6214 168.456C33.5248 168.133 33.3071 167.86 33.0137 167.693C32.7203 167.526 32.3739 167.479 32.0467 167.562C31.7211 167.655 31.4451 167.872 31.2779 168.167C31.1108 168.461 31.0658 168.81 31.1526 169.137L31.1494 169.129Z" fill="#232323"/>
<path d="M14.8896 152.575C18.4989 152.258 21.9594 154.554 25.5665 153.29C25.8894 153.193 26.1624 152.975 26.329 152.682C26.4956 152.389 26.5429 152.042 26.4611 151.715C26.3682 151.39 26.151 151.113 25.8564 150.946C25.5617 150.779 25.2132 150.734 24.8858 150.821C23.3527 151.358 21.7919 151.061 20.2198 150.706C18.476 150.313 16.6916 149.856 14.8896 150.013C14.5528 150.021 14.2322 150.159 13.9939 150.397C13.7557 150.635 13.618 150.956 13.6094 151.293C13.6117 151.632 13.7474 151.956 13.987 152.196C14.2266 152.435 14.5508 152.571 14.8896 152.573V152.575Z" fill="#232323"/>
<path d="M17.2311 145.348C19.1369 147.421 20.9908 149.54 22.7927 151.706C23.0334 151.945 23.3588 152.079 23.698 152.079C24.0371 152.079 24.3625 151.945 24.6032 151.706C24.8352 151.461 24.9645 151.137 24.9645 150.8C24.9645 150.463 24.8352 150.139 24.6032 149.895C22.8023 147.73 20.9484 145.611 19.0416 143.538C18.8002 143.3 18.4751 143.167 18.1363 143.167C17.7975 143.167 17.4724 143.3 17.2311 143.538C16.9976 143.781 16.8672 144.105 16.8672 144.443C16.8672 144.78 16.9976 145.105 17.2311 145.348Z" fill="#232323"/>
<path d="M22.5738 148.836C24.337 147.141 25.9176 145.266 27.2895 143.241C27.6205 142.752 27.9406 142.256 28.2497 141.753C28.5548 141.258 28.8119 140.699 29.165 140.237C29.738 139.487 31.1484 139.257 32.0606 139.083C32.3862 138.99 32.6624 138.773 32.8296 138.478C32.9968 138.184 33.0417 137.835 32.9546 137.508C32.8583 137.185 32.6406 136.911 32.3471 136.744C32.0536 136.578 31.707 136.531 31.3799 136.614C30.0724 136.863 28.6465 137.258 27.6223 138.153C27.1452 138.633 26.7473 139.186 26.4434 139.791C26.1233 140.331 25.7917 140.865 25.4485 141.391C24.107 143.441 22.5352 145.331 20.7638 147.024C19.5737 148.168 21.3858 149.977 22.5743 148.834L22.5738 148.836Z" fill="#232323"/>
<path d="M35.485 159.277C36.1238 161.837 37.2589 164.248 38.826 166.371C39.3966 167.283 40.1617 168.058 41.0664 168.64C41.6842 168.967 42.3617 169.166 43.0583 169.226C43.7549 169.285 44.4563 169.203 45.1206 168.985C48.0241 168.015 49.1748 164.874 49.0414 162.024C48.9412 160.917 48.7115 159.825 48.357 158.77C47.9767 157.472 47.544 156.19 47.1024 154.912C46.3643 152.682 45.4378 150.519 44.3327 148.446C43.5363 147.002 41.3246 148.292 42.1216 149.738C42.567 150.546 42.9447 151.392 43.3229 152.233C43.684 153.037 43.8793 153.448 44.1407 154.183C44.9046 156.329 45.6813 158.492 46.2307 160.705C46.2841 160.924 46.3374 161.145 46.3822 161.367C46.3993 161.449 46.4846 161.973 46.4537 161.715C46.5073 162.241 46.5009 162.771 46.4345 163.295C46.3855 164.317 45.9687 165.286 45.2609 166.024C44.9248 166.317 44.5212 166.522 44.0864 166.62C43.6516 166.719 43.1992 166.708 42.7697 166.588C42.3734 166.468 42.0195 166.237 41.7498 165.923C41.6479 165.817 41.5439 165.71 41.4452 165.603C41.3822 165.533 41.1161 165.198 41.1977 165.307C39.6605 163.32 38.5542 161.036 37.9495 158.598C37.5927 156.99 35.1223 157.67 35.4808 159.279L35.485 159.277Z" fill="#232323"/>
<path d="M2.56053 183.955C2.96275 178.996 3.08385 174.018 2.92327 169.046C2.81018 164.705 2.59413 160.364 2.70616 156.02C2.82616 151.175 3.413 146.353 4.45852 141.621C4.66497 140.497 5.08978 139.425 5.70891 138.464C6.40603 137.537 7.25973 136.738 8.23156 136.104C10.3424 134.575 12.5973 133.271 14.8399 131.95C17.5024 130.413 20.0449 128.678 22.4457 126.758C23.982 125.507 26.7132 125.489 28.7905 125.27C29.1271 125.26 29.4474 125.122 29.6855 124.884C29.9236 124.646 30.0614 124.326 30.0707 123.989C30.0685 123.65 29.9329 123.326 29.6933 123.086C29.4537 122.847 29.1293 122.711 28.7905 122.709C26.55 122.946 24.1207 123.008 22.0456 123.969C20.9302 124.486 20.0217 125.471 19.0391 126.197C17.9189 127.026 16.7533 127.794 15.5675 128.527C13.2865 129.935 10.9297 131.217 8.68606 132.688C6.48827 134.128 4.20513 135.658 2.96968 138.058C2.4117 139.25 2.01799 140.512 1.7993 141.809C1.51729 143.151 1.27031 144.499 1.05835 145.855C0.670716 148.344 0.402394 150.848 0.253386 153.366C-0.0037341 157.85 0.156299 162.335 0.297661 166.818C0.537016 172.531 0.437621 178.253 0 183.955C0.00265025 184.293 0.138386 184.617 0.37791 184.857C0.617434 185.097 0.941536 185.232 1.28026 185.235C1.61767 185.228 1.93937 185.091 2.178 184.852C2.41664 184.614 2.55371 184.292 2.56053 183.955Z" fill="#232323"/>
<path d="M75.9212 78.6159C80.1546 77.7223 99.6285 73.5759 106.992 72.0012C107.737 71.8411 108.516 71.9833 109.157 72.3966C109.798 72.8099 110.249 73.4606 110.411 74.2059C111.866 80.8739 114.616 93.3688 115.223 96.2462C116.154 100.655 119.748 117.5 121.435 125.438C121.514 125.808 121.52 126.191 121.451 126.563C121.382 126.936 121.241 127.291 121.034 127.609C120.828 127.926 120.561 128.2 120.249 128.415C119.937 128.629 119.585 128.78 119.214 128.858C105.598 131.752 48.8372 143.854 35.7722 146.639C35.4613 146.705 35.1404 146.71 34.8279 146.652C34.5153 146.594 34.2172 146.475 33.9507 146.302C33.6841 146.129 33.4543 145.905 33.2744 145.643C33.0945 145.381 32.968 145.086 32.9022 144.775C31.28 137.136 27.5145 119.485 26.5569 114.956C25.9573 112.114 23.2688 99.8992 21.8013 93.1767C21.7199 92.8059 21.7127 92.4227 21.78 92.049C21.8472 91.6754 21.9877 91.3188 22.1933 90.9996C22.3989 90.6804 22.6655 90.4051 22.9779 90.1893C23.2903 89.9736 23.6422 89.8217 24.0135 89.7424C34.7933 87.4283 72.8593 79.2619 75.9212 78.6159Z" fill="#BDBDBD"/>
<path d="M76.2567 79.8503C80.4293 78.9694 84.6008 78.0831 88.7713 77.1916C94.1253 76.0536 99.4793 74.9125 104.833 73.7685L106.327 73.4484C106.782 73.3027 107.257 73.2244 107.735 73.2158C109.137 73.3492 109.237 74.8482 109.475 75.9364C110.121 78.8902 110.768 81.8439 111.416 84.7974C112.381 89.2021 113.351 93.6051 114.286 98.0161C115.396 103.251 116.511 108.486 117.629 113.72C118.239 116.583 118.849 119.446 119.459 122.308C119.702 123.451 120.045 124.616 120.196 125.775C120.352 126.967 119.466 127.494 118.45 127.71C115.308 128.378 112.166 129.047 109.024 129.716C104.501 130.679 99.9791 131.642 95.4569 132.606L79.6777 135.967L63.6131 139.391L49.192 142.47L38.3412 144.783L36.3952 145.197C35.7081 145.344 34.9106 145.645 34.3793 144.996C34.1203 144.534 33.9675 144.019 33.9317 143.491L33.5829 141.851L32.7827 138.085C31.5736 132.408 30.3644 126.731 29.1553 121.054C28.3477 117.258 27.5448 113.461 26.7169 109.669C26.0679 106.694 25.4169 103.72 24.764 100.746C24.435 99.2452 24.1061 97.7439 23.7771 96.2424L23.3274 94.1871C23.1348 93.6146 23.027 93.0171 23.0074 92.4134C23.1231 91.2398 24.1809 91.012 25.1315 90.8083L27.4787 90.3047L33.3871 89.0372L48.2334 85.8531C53.2559 84.7759 58.2783 83.6992 63.3005 82.6231C66.8688 81.8581 70.4372 81.0935 74.0056 80.3293C74.757 80.1685 75.5087 80.0085 76.2605 79.8492C77.8715 79.5094 77.1897 77.0401 75.5798 77.3804C73.174 77.8883 70.7697 78.402 68.3671 78.9215C63.6956 79.9226 59.0251 80.9237 54.3557 81.9248C49.0885 83.0536 43.8218 84.1836 38.5556 85.3149L25.7226 88.0658C24.9544 88.2307 24.1431 88.3421 23.3941 88.5806C22.5216 88.8555 21.7626 89.4075 21.2321 90.1528C20.7017 90.8981 20.4288 91.7961 20.4548 92.7105C20.5306 94.1385 21.0203 95.6146 21.3254 97.0085L22.3544 101.706C23.4053 106.501 24.4701 111.294 25.4868 116.097C26.5491 121.114 27.616 126.13 28.6875 131.145C29.308 134.055 29.9281 136.965 30.5476 139.875C30.8115 141.118 31.0759 142.361 31.3408 143.603C31.6502 145.06 31.8977 146.454 33.2255 147.358C34.8839 148.486 37.022 147.678 38.8143 147.296L43.7178 146.25L56.9002 143.44L72.8 140.051L89.2647 136.541L104.388 133.319L116.017 130.844L118.144 130.391C118.974 130.273 119.785 130.046 120.556 129.717C121.359 129.278 121.999 128.591 122.379 127.758C122.759 126.925 122.859 125.991 122.664 125.097C122.438 123.885 122.15 122.682 121.894 121.477C120.629 115.532 119.362 109.587 118.095 103.642C117.257 99.7045 116.428 95.7639 115.571 91.8298C114.286 85.9342 112.996 80.0396 111.701 74.1462C111.547 73.2889 111.133 72.4999 110.514 71.8867C109.896 71.2735 109.104 70.8658 108.245 70.7193C107.013 70.5331 105.729 70.962 104.527 71.2192L96.9469 72.836C91.4264 74.0128 85.9053 75.188 80.3834 76.3615C78.781 76.7019 77.1782 77.0419 75.575 77.3815C73.9645 77.7213 74.6463 80.1901 76.2567 79.8503Z" fill="#232323"/>
<path d="M24.6571 100.378C36.2329 97.9319 73.926 89.9633 77.6083 89.1866C83.3391 87.9773 110.703 82.1393 112.079 81.8208C112.459 83.5705 112.85 85.357 113.222 87.0587C112.553 87.2262 84.5228 93.2061 78.7152 94.4319C74.5618 95.3084 46.0845 101.336 41.666 102.269C38.6254 102.909 27.7618 105.213 24.5771 105.885C24.208 104.183 23.8154 102.393 23.4297 100.637L24.6571 100.378Z" fill="#232323"/>
<path d="M26.6965 94.3623C27.2135 93.6461 27.776 92.9638 28.3806 92.3198C28.4438 92.2526 28.5241 92.204 28.6129 92.179C28.7017 92.1541 28.7957 92.1539 28.8846 92.1783C28.9735 92.2028 29.0541 92.2511 29.1177 92.3179C29.1812 92.3847 29.2253 92.4676 29.2453 92.5577C29.4523 93.4822 29.7158 94.6163 29.9105 95.4772C29.9313 95.5666 29.9273 95.66 29.8991 95.7473C29.8708 95.8346 29.8194 95.9126 29.7502 95.9729C29.681 96.0332 29.5967 96.0735 29.5064 96.0896C29.416 96.1056 29.323 96.0968 29.2373 96.064C28.5193 95.7925 27.5703 95.4057 26.9115 95.1257C26.8414 95.096 26.7788 95.0509 26.7284 94.9938C26.6781 94.9367 26.6412 94.869 26.6206 94.7957C26.5999 94.7224 26.596 94.6454 26.6092 94.5704C26.6223 94.4953 26.6522 94.4242 26.6965 94.3623Z" fill="#232323"/>
<path d="M43.4635 120.386C40.9333 120.923 37.2398 121.707 35.6384 122.047C35.57 122.061 35.4995 122.062 35.4307 122.05C35.362 122.037 35.2965 122.011 35.238 121.972C35.1794 121.934 35.129 121.885 35.0896 121.827C35.0502 121.769 35.0226 121.704 35.0084 121.636C34.5598 119.505 33.6076 114.968 33.1835 112.955C33.1689 112.887 33.1681 112.816 33.1809 112.748C33.1937 112.679 33.2199 112.614 33.2581 112.555C33.2963 112.497 33.3456 112.447 33.4033 112.407C33.461 112.368 33.5259 112.34 33.5942 112.326L43.2325 110.299C43.3007 110.285 43.3711 110.284 43.4397 110.297C43.5082 110.309 43.5736 110.335 43.632 110.373C43.6905 110.412 43.7408 110.461 43.7802 110.518C43.8195 110.576 43.8471 110.641 43.8614 110.709C44.2706 112.629 45.33 117.544 45.7189 119.365C45.7478 119.503 45.7209 119.647 45.644 119.765C45.5671 119.883 45.4466 119.966 45.3086 119.996L43.4635 120.386Z" fill="#FFDA71"/>
<path d="M43.1273 119.151L38.8667 120.056L36.925 120.468L36.0283 120.658C35.8997 120.685 35.7685 120.706 35.6415 120.74C35.1513 120.869 35.7077 120.556 35.9792 120.89L36.3083 121.455C36.1106 120.81 35.9627 120.152 35.8661 119.484L35.3444 117L34.8403 114.6C34.7667 114.249 34.6929 113.898 34.6189 113.547L34.5208 113.081L34.4701 112.838C34.421 112.535 34.3792 112.686 34.3447 113.291L33.7798 113.62C34.4401 113.418 35.1149 113.267 35.7984 113.168L38.6176 112.575L41.4182 111.986L42.6078 111.736L43.1103 111.629C43.1759 111.615 43.2447 111.605 43.3092 111.587C43.7509 111.462 43.1737 111.789 42.899 111.452L42.5693 110.887C42.7747 111.55 42.9292 112.228 43.0313 112.914C43.2034 113.719 43.3761 114.523 43.5493 115.327L44.0678 117.74C44.1467 118.106 44.2255 118.472 44.3041 118.839C44.3372 118.994 44.3704 119.15 44.4039 119.305L44.4481 119.512C44.4976 119.802 44.5372 119.64 44.5671 119.025L45.132 118.696C44.4763 118.898 43.8061 119.049 43.1273 119.148C42.7999 119.239 42.5217 119.455 42.354 119.751C42.1863 120.046 42.1427 120.396 42.233 120.723C42.3233 121.051 42.5399 121.329 42.8353 121.497C43.1307 121.664 43.4806 121.708 43.808 121.618C44.6615 121.436 45.8612 121.384 46.5051 120.732C47.1986 120.029 46.9815 119.131 46.799 118.281C46.4857 116.82 46.1719 115.359 45.8575 113.898L45.3918 111.729C45.323 111.047 45.1259 110.383 44.8109 109.774C43.8955 108.435 41.8097 109.293 40.522 109.564L36.1291 110.488L34.2311 110.887C33.591 111.022 32.8975 111.093 32.4083 111.586C31.6807 112.322 31.9501 113.272 32.1368 114.159C32.2915 114.895 32.446 115.63 32.6004 116.365C32.935 117.958 33.2698 119.551 33.6048 121.144C33.8225 122.18 34.1916 123.309 35.4719 123.335C36.3073 123.269 37.1329 123.112 37.9343 122.867L43.8075 121.621C43.9696 121.576 44.1214 121.5 44.254 121.397C44.3867 121.293 44.4978 121.165 44.5808 121.019C44.6639 120.872 44.7173 120.711 44.738 120.544C44.7588 120.377 44.7465 120.208 44.7018 120.046C44.6571 119.884 44.5809 119.732 44.4776 119.599C44.3742 119.467 44.2458 119.356 44.0995 119.272C43.9533 119.189 43.7921 119.136 43.6252 119.115C43.4583 119.094 43.2895 119.107 43.1273 119.151Z" fill="#232323"/>
<path d="M45.8096 125.951L46.278 128.17C46.3449 128.412 46.482 128.63 46.672 128.795C46.862 128.961 47.0966 129.066 47.3464 129.099C47.5961 129.132 47.8499 129.09 48.0761 128.979C48.3022 128.868 48.4906 128.693 48.6177 128.475C48.7801 128.173 48.826 127.822 48.7467 127.489L48.2805 125.27C48.2137 125.027 48.0766 124.809 47.8865 124.644C47.6965 124.478 47.4618 124.373 47.2119 124.34C46.962 124.307 46.7081 124.349 46.4819 124.46C46.2557 124.571 46.0673 124.747 45.9403 124.964C45.7781 125.266 45.7322 125.617 45.8112 125.951L45.8096 125.951Z" fill="#232323"/>
<path d="M42.233 126.705L42.7014 128.924C42.7683 129.167 42.9054 129.384 43.0954 129.55C43.2855 129.715 43.5201 129.821 43.7698 129.853C44.0196 129.886 44.2734 129.844 44.4995 129.733C44.7256 129.622 44.914 129.447 45.0411 129.23C45.2035 128.928 45.2494 128.577 45.1702 128.243L44.7023 126.025C44.6356 125.782 44.4986 125.564 44.3085 125.398C44.1185 125.233 43.8838 125.127 43.6339 125.094C43.3841 125.062 43.1301 125.103 42.9038 125.214C42.6776 125.325 42.4892 125.501 42.3621 125.718C42.2 126.021 42.1541 126.372 42.233 126.705Z" fill="#232323"/>
<path d="M38.6549 127.46L39.1233 129.678C39.1902 129.921 39.3273 130.139 39.5173 130.304C39.7073 130.469 39.9419 130.575 40.1917 130.608C40.4414 130.64 40.6953 130.598 40.9214 130.487C41.1475 130.377 41.3359 130.201 41.463 129.984C41.6254 129.682 41.6713 129.331 41.5921 128.998L41.1242 126.779C41.0575 126.536 40.9205 126.318 40.7304 126.153C40.5403 125.987 40.3057 125.881 40.0558 125.849C39.8059 125.816 39.552 125.858 39.3257 125.969C39.0995 126.08 38.911 126.255 38.784 126.473C38.6219 126.775 38.5759 127.126 38.6549 127.46Z" fill="#232323"/>
<path d="M35.0846 128.213L35.5529 130.432C35.6199 130.675 35.7569 130.893 35.947 131.058C36.137 131.224 36.3716 131.329 36.6213 131.362C36.8711 131.394 37.1249 131.353 37.3511 131.242C37.5772 131.131 37.7656 130.956 37.8926 130.738C38.055 130.436 38.1009 130.085 38.0217 129.751L37.5539 127.532C37.4871 127.289 37.35 127.071 37.1599 126.905C36.9698 126.74 36.7352 126.634 36.4853 126.602C36.2354 126.569 35.9815 126.611 35.7553 126.722C35.5291 126.833 35.3407 127.008 35.2137 127.226C35.0516 127.528 35.0056 127.879 35.0846 128.212V128.213Z" fill="#232323"/>
<path d="M61.3999 110.467C57.9112 111.205 54.3905 111.847 50.9252 112.685C50.7361 112.737 50.5591 112.826 50.4043 112.946C50.2495 113.067 50.1199 113.217 50.023 113.387C49.8273 113.732 49.7765 114.14 49.8818 114.522C49.9871 114.904 50.2398 115.229 50.5843 115.424C50.7549 115.521 50.9429 115.583 51.1376 115.608C51.3323 115.632 51.5298 115.618 51.719 115.565C55.1864 114.727 58.7071 114.085 62.1937 113.347C62.5757 113.242 62.9002 112.989 63.0959 112.645C63.2916 112.3 63.3424 111.892 63.2371 111.51C63.1318 111.128 62.8791 110.804 62.5346 110.608C62.1901 110.412 61.7819 110.362 61.3999 110.467Z" fill="#232323"/>
<path d="M77.3216 107.106C73.8329 107.844 70.3127 108.486 66.8469 109.325C66.4649 109.43 66.1404 109.683 65.9448 110.027C65.7492 110.372 65.6984 110.78 65.8038 111.162C65.9091 111.544 66.1618 111.868 66.5064 112.064C66.851 112.26 67.2592 112.31 67.6412 112.205C71.1086 111.367 74.6293 110.724 78.1159 109.987C78.4979 109.882 78.8224 109.629 79.018 109.284C79.2136 108.94 79.2644 108.532 79.159 108.15C79.0537 107.768 78.801 107.443 78.4564 107.248C78.1118 107.052 77.7036 107.001 77.3216 107.106Z" fill="#232323"/>
<path d="M93.2518 103.746C89.7631 104.483 86.2424 105.126 82.7766 105.964C82.3946 106.069 82.0701 106.322 81.8745 106.666C81.6788 107.011 81.6281 107.419 81.7334 107.801C81.8388 108.183 82.0915 108.508 82.4361 108.703C82.7807 108.899 83.1889 108.95 83.5709 108.844C87.0383 108.006 90.559 107.363 94.0456 106.626C94.2347 106.574 94.4117 106.485 94.5665 106.365C94.7213 106.244 94.8509 106.094 94.9478 105.924C95.0447 105.753 95.107 105.565 95.1312 105.37C95.1555 105.176 95.1411 104.978 95.089 104.789C95.0369 104.6 94.948 104.423 94.8275 104.268C94.7069 104.113 94.5571 103.984 94.3865 103.887C94.2159 103.79 94.0279 103.728 93.8332 103.703C93.6385 103.679 93.441 103.693 93.2518 103.746Z" fill="#232323"/>
<path d="M109.04 100.414C105.552 101.151 102.031 101.794 98.5657 102.632C98.1837 102.737 97.8592 102.99 97.6635 103.335C97.4679 103.679 97.4172 104.088 97.5225 104.47C97.6278 104.852 97.8806 105.176 98.2252 105.372C98.5698 105.567 98.978 105.618 99.36 105.513C102.827 104.675 106.348 104.032 109.835 103.295C110.024 103.243 110.201 103.154 110.356 103.033C110.51 102.913 110.64 102.763 110.737 102.592C110.834 102.421 110.896 102.233 110.92 102.039C110.944 101.844 110.93 101.646 110.878 101.457C110.826 101.268 110.737 101.091 110.616 100.936C110.496 100.782 110.346 100.652 110.175 100.555C110.004 100.458 109.816 100.396 109.622 100.372C109.427 100.348 109.229 100.362 109.04 100.414Z" fill="#232323"/>
<path d="M107.203 114.18C108.59 115.295 109.949 116.453 111.386 117.504C111.534 117.589 111.697 117.645 111.866 117.667C112.036 117.689 112.208 117.678 112.372 117.633C112.693 117.542 112.967 117.332 113.138 117.046C113.223 116.898 113.279 116.735 113.301 116.566C113.323 116.396 113.312 116.224 113.267 116.059C113.162 115.746 112.956 115.476 112.68 115.294C112.511 115.17 112.344 115.044 112.179 114.916L112.437 115.116C111.28 114.221 110.155 113.287 109.015 112.371C108.769 112.14 108.446 112.007 108.109 111.998C107.769 111.999 107.444 112.133 107.202 112.371C106.962 112.612 106.828 112.938 106.828 113.278C106.826 113.446 106.858 113.614 106.922 113.77C106.986 113.925 107.081 114.067 107.202 114.185L107.203 114.18Z" fill="#232323"/>
<path d="M99.9003 115.378C103.034 118.301 106.424 120.979 109.748 123.679C110.373 124.186 110.998 124.693 111.636 125.183C111.929 125.353 112.278 125.4 112.606 125.314C112.934 125.228 113.215 125.016 113.387 124.724C113.55 124.429 113.593 124.082 113.508 123.756C113.422 123.43 113.215 123.149 112.928 122.972C113.208 123.185 113.098 123.104 112.924 122.967C112.817 122.882 112.71 122.798 112.604 122.713C112.305 122.475 112.008 122.235 111.712 121.994C110.923 121.354 110.136 120.711 109.353 120.065C107.524 118.559 105.7 117.043 103.901 115.501C103.161 114.867 102.421 114.232 101.709 113.567C100.505 112.447 98.6899 114.251 99.8982 115.378H99.9003Z" fill="#232323"/>
<path d="M25.6345 151.912C32.9603 149.437 37.8317 142.72 43.483 137.442C45.047 135.982 47.1797 134.522 49.1641 135.323C50.4977 135.861 51.2835 137.33 51.3806 138.766C51.3969 140.211 51.0764 141.64 50.4444 142.94C47.5435 149.811 43.8201 153.04 40.461 159.699C39.0322 162.532 37.9653 165.534 37.2854 168.633C36.4938 172.245 36.2927 175.056 35.205 177.627C34.0282 181.535 28.6132 185.746 24.1094 190.905" fill="white"/>
<path d="M25.9783 153.146C31.6232 151.205 35.8913 146.985 39.9545 142.789C40.9766 141.734 41.9955 140.676 43.041 139.645C44.0083 138.582 45.1149 137.654 46.3308 136.887C47.3496 136.319 48.6208 136.077 49.4482 137.087C50.3017 138.13 50.2009 139.568 49.8643 140.787C49.0342 143.792 47.2701 146.628 45.5637 149.209C43.9137 151.705 42.1352 154.112 40.632 156.703C38.9323 159.605 37.5955 162.704 36.6514 165.931C35.7686 168.997 35.4816 172.183 34.6585 175.258C34.3549 176.522 33.8781 177.737 33.2417 178.87C32.4916 180.067 31.6211 181.184 30.6438 182.204C28.2198 184.855 25.5787 187.298 23.2087 190.001C22.1263 191.236 23.9304 193.054 25.0192 191.812C27.2522 189.265 29.7199 186.945 32.0307 184.472C33.0456 183.411 33.9863 182.282 34.8463 181.091C35.5415 180.066 36.1031 178.956 36.5175 177.788C37.6287 174.884 37.8922 171.753 38.575 168.737C39.3658 165.267 40.6457 161.928 42.3763 158.819C45.497 153.181 49.9832 148.332 52.117 142.157C52.6675 140.562 52.9246 138.756 52.3416 137.132C52.1031 136.379 51.6837 135.696 51.1201 135.143C50.5564 134.589 49.8657 134.183 49.1084 133.958C45.7434 133.104 42.9205 136.145 40.7867 138.276C36.1511 142.911 31.7048 148.473 25.2966 150.677C23.7496 151.211 24.4132 153.684 25.9772 153.146H25.9783Z" fill="#232323"/>
<path d="M112.924 57.8522C112.53 59.0407 112.254 60.2617 111.921 61.4668C111.876 61.6289 111.864 61.7983 111.885 61.9652C111.906 62.132 111.959 62.2932 112.042 62.4395C112.125 62.5857 112.236 62.7142 112.369 62.8175C112.501 62.9209 112.653 62.9971 112.815 63.0418C112.977 63.0864 113.147 63.0988 113.314 63.078C113.481 63.0573 113.642 63.0038 113.788 62.9208C113.934 62.8377 114.063 62.7267 114.166 62.594C114.269 62.4613 114.346 62.3096 114.39 62.1474C114.723 60.9424 114.999 59.7213 115.393 58.5328C115.48 58.2055 115.436 57.8569 115.268 57.5622C115.101 57.2675 114.825 57.0505 114.499 56.9581C114.172 56.8758 113.825 56.9227 113.532 57.0893C113.239 57.2558 113.021 57.5291 112.924 57.8522Z" fill="#232323"/>
<path d="M119.84 61.5003C118.812 62.2093 117.841 62.9939 116.842 63.7408C116.562 63.9181 116.354 64.1892 116.255 64.5057C116.166 64.8388 116.213 65.1935 116.384 65.4926C116.554 65.7795 116.828 65.9897 117.149 66.0794C117.313 66.1268 117.486 66.1398 117.656 66.1176C117.826 66.0954 117.989 66.0385 118.136 65.9503C119.134 65.2035 120.106 64.4172 121.134 63.7098C121.416 63.5344 121.624 63.2626 121.721 62.9449C121.809 62.6119 121.763 62.2575 121.591 61.9585C121.422 61.6715 121.148 61.4612 120.827 61.3717C120.662 61.3256 120.489 61.3132 120.32 61.3354C120.15 61.3576 119.987 61.4139 119.84 61.5008V61.5003Z" fill="#232323"/>
</g>
<defs>
<clipPath id="clip0_615_2330">
<rect width="220" height="146.226" fill="white" transform="translate(0 46)"/>
</clipPath>
</defs>
</svg>
