<svg width="220" height="220" viewBox="0 0 220 220" fill="none" xmlns="http://www.w3.org/2000/svg">
<g clip-path="url(#clip0_615_2243)">
<path d="M106.196 117.486C101.94 118.6 98.7923 119.641 98.7923 119.641C90.5183 121.397 84.9053 115.716 84.9534 110.537C85.0809 106.665 85.6305 102.818 86.5924 99.0654C87.8669 94.5134 88.7763 86.5015 88.7763 75.3946C88.2326 59.0067 92.5437 47.1227 99.3394 40.6164C103.436 36.6967 112.667 31.3513 123.04 31.3513C128.202 31.2704 133.326 32.252 138.092 34.2351L139.441 34.7816L142.177 36.2672C144.617 37.5921 145.269 38.6011 147.511 40.7643C152.697 45.7675 156.302 54.7695 156.875 62.8307C157.043 65.1563 157.422 71.2067 157.055 75.3946C157.239 89.233 159.79 96.9784 161.107 100.791C162.143 103.565 162.684 106.499 162.706 109.46C162.753 114.64 156.316 121.347 148.915 118.692C148.915 118.692 131.548 115.047 122.757 114.833C117.971 114.716 111.288 116.153 106.196 117.486Z" fill="#51443C"/>
<path d="M97.1837 73.4495C96.7585 73.0807 96.2588 72.8079 95.7186 72.6498C95.1784 72.4917 94.6104 72.452 94.0535 72.5334C93.5072 72.6108 92.9851 72.8096 92.5256 73.1151C92.0661 73.4206 91.6809 73.8251 91.3981 74.299C91.0707 74.9533 90.8843 75.669 90.8511 76.4C90.6125 79.2591 91.1646 82.1287 92.447 84.6952C93.0516 85.9924 93.9288 87.1439 95.0189 88.0713C95.8891 88.7651 97.1176 89.5501 98.6782 89.1604L98.9705 89.0859C99.9298 92.8612 101.7 96.3822 104.159 99.4038C106.449 102.268 109.334 104.601 112.614 106.242C112.535 107.695 112.363 109.141 112.098 110.572C111.782 112.375 111.881 113.988 109.374 114.892C109.206 114.952 101.279 118.661 100.797 118.826L100.412 118.957C104.556 124.417 114.448 128.399 123.781 128.399C132.948 128.399 142.197 124.044 146.669 118.659L146.133 118.439C145.88 118.334 138.77 114.952 138.604 114.892C136.097 113.987 136.196 112.373 135.88 110.572C135.596 108.981 135.419 107.372 135.348 105.757C141.659 102.663 146.69 94.0169 147.584 91.5895C147.748 91.0928 148.112 90.0776 148.389 88.9146C149.509 88.7499 150.999 88.7505 151.849 88.0746C152.94 87.1473 153.817 85.9958 154.421 84.6986C155.702 82.1305 156.252 79.2596 156.011 76.4C155.978 75.669 155.792 74.9532 155.465 74.299C155.182 73.8251 154.796 73.4205 154.337 73.115C153.877 72.8094 153.355 72.6107 152.809 72.5334C152.252 72.452 151.684 72.4917 151.144 72.6498C150.604 72.8079 150.104 73.0807 149.679 73.4495C145.293 72.109 140.001 65.0932 138.308 61.9176C137.125 59.6985 135.838 54.8868 134.818 51.4917C129.967 57.8092 123.803 62.285 116.147 64.4716C114.326 65.0131 116.042 59.2388 116.365 56.5101C111.526 61.2636 106.237 66.2803 101.329 70.2958L97.1837 73.4495Z" fill="white"/>
<path d="M147.389 86.438C147.321 87.5779 147.105 88.7042 146.748 89.7888C146.63 90.1808 146.5 90.5727 146.369 90.9608C146.332 91.0728 146.295 91.1827 146.257 91.2906C146.242 91.3332 146.223 91.3746 146.208 91.4177C146.123 91.6647 146.31 91.1881 146.241 91.341C145.733 92.4486 145.154 93.5225 144.509 94.5563C142.68 97.6384 140.348 100.392 137.609 102.704C136.124 103.97 134.368 104.879 132.477 105.36C130.793 105.752 131.506 108.342 133.192 107.952C137.136 107.041 140.419 104.161 142.991 101.167C145.2 98.6797 147.046 95.8928 148.475 92.8888C149.415 90.8603 149.958 88.6707 150.075 86.438C150.136 84.7077 147.447 84.7099 147.387 86.438H147.389Z" fill="#232323"/>
<path d="M98.1278 72.501C97.3969 71.8539 96.5014 71.4215 95.5402 71.2514C94.579 71.0813 93.5895 71.1803 92.681 71.5373C90.584 72.3957 89.6987 74.2408 89.501 76.4017C89.1303 80.4676 90.3874 85.0957 93.1564 88.1609C94.6683 89.8374 96.7374 90.9473 99.0293 90.4568C100.72 90.0956 100.005 87.5041 98.3148 87.8647C96.8298 88.1822 95.44 86.8338 94.6302 85.743C93.5047 84.1489 92.7403 82.3286 92.3904 80.4088C92.2037 79.4598 92.1178 78.4937 92.1339 77.5267C92.1446 76.6806 92.1339 75.634 92.6032 74.8948C92.8012 74.6148 93.0548 74.3784 93.3481 74.2005C93.6414 74.0226 93.9682 73.9069 94.3081 73.8607C94.648 73.8145 94.9938 73.8387 95.324 73.9318C95.6541 74.025 95.9616 74.185 96.2273 74.4021C96.4837 74.6457 96.8238 74.7815 97.1775 74.7815C97.5312 74.7815 97.8713 74.6457 98.1278 74.4021C98.3771 74.1486 98.5168 73.8073 98.5168 73.4518C98.5168 73.0963 98.3771 72.7545 98.1278 72.501Z" fill="#232323"/>
<path d="M96.984 86.3649C97.6254 90.2228 98.9807 93.9272 100.98 97.2881C103.328 101.114 106.568 104.314 110.423 106.613C112.413 107.794 114.609 108.588 116.895 108.952C117.238 109.035 117.6 108.984 117.908 108.81C118.215 108.635 118.444 108.35 118.548 108.013C118.64 107.669 118.593 107.303 118.418 106.994C118.242 106.685 117.952 106.457 117.61 106.36C113.822 105.796 110.493 103.833 107.726 101.241C104.717 98.4683 102.417 95.0135 101.021 91.1672C100.39 89.3709 99.9076 87.5258 99.5794 85.6504C99.482 85.3083 99.2541 85.0182 98.9448 84.8427C98.6354 84.6671 98.2695 84.6202 97.9259 84.7119C97.5864 84.8132 97.2992 85.0417 97.1243 85.3498C96.9494 85.6578 96.9004 86.0215 96.9874 86.3649H96.984Z" fill="#232323"/>
<path d="M133.607 52.1603C134.228 54.2501 134.814 56.351 135.492 58.4235C135.994 60.1187 136.68 61.7541 137.537 63.3007C139.36 66.3933 141.639 69.193 144.297 71.605C145.731 72.9936 147.442 74.0633 149.319 74.7441C150.97 75.2694 151.678 72.6723 150.033 72.1521C147.141 71.2326 144.593 68.3158 142.663 65.9365C141.707 64.7626 140.83 63.5267 140.038 62.2368C139.295 60.9713 138.698 59.6257 138.258 58.2258C137.504 55.9859 136.874 53.708 136.201 51.4435C135.709 49.7894 133.114 50.4916 133.609 52.158L133.607 52.1603Z" fill="#232323"/>
<path d="M133.853 50.5684C131.118 54.186 127.739 57.2675 123.885 59.6577C121.99 60.8086 119.983 61.7631 117.894 62.5062C117.339 62.7022 116.779 62.8846 116.214 63.0533C116.068 63.0837 115.925 63.1254 115.786 63.1782C115.674 63.2342 115.585 63.1278 115.914 63.1658C116.06 63.1747 116.203 63.2158 116.332 63.2863C116.461 63.3568 116.573 63.4548 116.659 63.5735C116.855 63.8249 116.68 63.7085 116.665 63.508C116.69 63.844 116.665 63.452 116.665 63.3366C116.661 62.9764 116.681 62.6163 116.726 62.2587C116.918 60.4892 117.47 58.4202 117.707 56.5124C117.857 55.2995 116.17 54.8185 115.411 55.5604C110.56 60.3229 105.634 65.0333 100.374 69.3462C100.124 69.5994 99.9844 69.9408 99.9844 70.2964C99.9844 70.6521 100.124 70.9934 100.374 71.2467C100.63 71.4915 100.97 71.6282 101.324 71.6282C101.678 71.6282 102.019 71.4915 102.275 71.2467C107.534 66.935 112.46 62.224 117.311 57.4615L115.015 56.5096C114.981 56.7828 114.997 56.6003 115.01 56.5488C114.982 56.6641 114.973 56.7879 114.954 56.9055C114.916 57.1351 114.875 57.3646 114.833 57.5942C114.74 58.0943 114.642 58.5926 114.546 59.0921C114.348 60.1163 114.16 61.1433 114.042 62.1803C113.862 63.7639 114.144 66.2496 116.377 65.7938C117.561 65.509 118.718 65.1223 119.834 64.638C121.079 64.149 122.296 63.5938 123.481 62.9749C125.715 61.788 127.818 60.3701 129.756 58.7444C131.979 56.8772 133.99 54.7729 135.755 52.4689C135.997 52.2114 136.131 51.8716 136.131 51.5186C136.131 51.1656 135.997 50.8259 135.755 50.5684C135.502 50.3184 135.161 50.1782 134.805 50.1782C134.449 50.1782 134.108 50.3184 133.855 50.5684H133.853Z" fill="#232323"/>
<path d="M158.395 75.3944C158.598 72.4501 158.611 69.4957 158.434 66.5498C158.359 63.9382 158.115 61.3343 157.702 58.7545C156.638 52.7629 154.247 46.815 150.452 42.0273C149.396 40.7732 148.271 39.5781 147.083 38.4475C145.988 37.2847 144.75 36.2658 143.398 35.4153C141.91 34.5244 140.557 36.8471 142.041 37.7358C143.085 38.3847 144.043 39.1635 144.891 40.0535C145.905 41.0737 146.968 42.0559 147.907 43.1467C149.707 45.3092 151.189 47.7174 152.309 50.2985C153.495 52.9534 154.378 55.7335 154.941 58.586C155.378 60.9921 155.635 63.4274 155.712 65.8717C155.923 69.0413 155.921 72.2216 155.705 75.391C155.708 75.7466 155.851 76.0868 156.102 76.3382C156.354 76.5897 156.694 76.7322 157.049 76.7349C157.404 76.7279 157.741 76.5841 157.992 76.3336C158.242 76.083 158.386 75.7453 158.393 75.391L158.395 75.3944Z" fill="#232323"/>
<path d="M87.4321 75.394C87.4321 79.7231 87.3044 84.0561 86.9377 88.3712C86.7216 91.353 86.2965 94.3159 85.6654 97.2382C85.3457 98.6381 84.9431 100.011 84.6665 101.421C84.2806 103.389 83.9945 105.382 83.7979 107.377C83.5661 108.998 83.5572 110.642 83.7716 112.264C84.0512 113.73 84.6598 115.114 85.5518 116.311C86.7821 117.927 88.3824 119.224 90.2181 120.092C92.0538 120.961 94.0713 121.377 96.1009 121.304C97.8289 121.276 97.834 118.588 96.1009 118.616C92.983 118.665 89.8853 117.517 87.921 115.016C87.1407 114.027 86.6113 112.864 86.3777 111.626C86.3273 111.368 86.3007 111.105 86.2982 110.842C86.2859 110.479 86.2982 110.114 86.315 109.752C86.348 108.925 86.4135 108.098 86.4964 107.274C86.6762 105.483 86.9444 103.698 87.2988 101.933C87.5676 100.593 87.9529 99.286 88.2569 97.9572C88.8809 95.0671 89.3137 92.1391 89.5527 89.1921C89.9783 84.6082 90.1171 80.0003 90.1199 75.3985C90.1199 73.6693 87.4321 73.6665 87.4321 75.3985V75.394Z" fill="#232323"/>
<path d="M155.711 75.3943C155.739 81.604 156.41 87.7942 157.712 93.8658C158.119 95.6723 158.604 97.4585 159.168 99.2247C159.899 101.512 160.739 103.753 161.117 106.137C161.379 107.789 161.571 109.623 161.091 111.248C160.539 112.946 159.532 114.459 158.179 115.624C156.894 116.788 158.799 118.684 160.079 117.524C161.406 116.342 162.467 114.891 163.192 113.269C163.846 111.743 164.131 110.084 164.023 108.427C163.803 105.387 163.155 102.394 162.097 99.5349C160.743 95.4755 159.776 91.2968 159.209 87.055C158.705 83.1873 158.435 79.2928 158.399 75.3927C158.374 73.6646 155.686 73.6596 155.711 75.3927V75.3943Z" fill="#232323"/>
<path d="M111.24 106.659C111.157 107.811 111.016 108.958 110.816 110.096C110.729 110.797 110.605 111.492 110.444 112.18C110.42 112.264 110.269 112.654 110.365 112.447C110.303 112.58 110.231 112.708 110.151 112.831C110.035 113.011 110.269 112.703 110.124 112.869C110.079 112.92 110.033 112.97 109.985 113.018C109.878 113.139 109.747 113.237 109.602 113.307C109.229 113.502 108.847 113.679 108.456 113.835C106.469 114.739 104.496 115.673 102.513 116.585C102.002 116.82 101.489 117.054 100.975 117.288C100.792 117.37 100.608 117.45 100.425 117.533C100.085 117.686 100.735 117.421 100.433 117.529C100.094 117.631 99.8079 117.86 99.6331 118.168C99.4582 118.475 99.4085 118.838 99.494 119.182C99.5914 119.524 99.8194 119.814 100.129 119.99C100.438 120.165 100.804 120.212 101.148 120.12C101.938 119.84 102.701 119.442 103.463 119.092C104.682 118.532 105.9 117.97 107.116 117.405C108.014 116.988 108.913 116.572 109.812 116.156C109.888 116.132 109.961 116.099 110.029 116.059C110.021 116.065 109.522 116.261 109.819 116.152C109.965 116.096 110.108 116.036 110.251 115.974C110.521 115.865 110.781 115.735 111.029 115.586C111.868 115.067 112.515 114.288 112.872 113.368C113.118 112.621 113.283 111.849 113.364 111.067C113.606 109.603 113.827 108.141 113.928 106.659C113.928 106.302 113.786 105.961 113.534 105.709C113.282 105.457 112.94 105.315 112.584 105.315C112.227 105.315 111.885 105.457 111.633 105.709C111.381 105.961 111.24 106.302 111.24 106.659Z" fill="#232323"/>
<path d="M134.008 105.996C134.127 108.136 134.394 110.266 134.808 112.37C134.966 113.226 135.35 114.024 135.919 114.682C136.489 115.341 137.223 115.836 138.047 116.116C138.555 116.317 137.704 115.944 138.063 116.116C138.195 116.18 138.33 116.24 138.462 116.302C138.882 116.498 139.3 116.695 139.719 116.894C140.853 117.429 141.986 117.966 143.12 118.503C143.894 118.869 144.661 119.262 145.448 119.598C145.759 119.766 146.122 119.81 146.463 119.72C146.805 119.631 147.099 119.414 147.287 119.115C147.465 118.807 147.514 118.441 147.423 118.097C147.333 117.753 147.111 117.458 146.805 117.277C145.135 116.565 143.51 115.724 141.869 114.948C141.073 114.571 140.279 114.186 139.478 113.822C139.062 113.66 138.659 113.469 138.271 113.25C138.085 113.139 137.923 112.991 137.797 112.815C137.67 112.639 137.581 112.439 137.535 112.227C137.345 111.445 137.203 110.652 137.108 109.853C136.898 108.575 136.76 107.287 136.696 105.993C136.688 105.639 136.544 105.302 136.294 105.051C136.043 104.801 135.706 104.657 135.352 104.649C134.996 104.653 134.656 104.795 134.405 105.047C134.154 105.298 134.011 105.638 134.008 105.993V105.996Z" fill="#232323"/>
<path d="M138.448 32.9392C133.169 30.8013 127.496 29.8103 121.806 30.0319C115.901 30.335 110.148 32.0088 105.002 34.9209C101.188 36.9656 97.8631 39.8145 95.2584 43.2705C92.589 47.0334 90.6298 51.2524 89.4773 55.7196C87.7196 62.0998 87.2184 68.7998 87.4273 75.3945C87.4833 77.1197 90.1711 77.1303 90.1151 75.3945C89.7993 65.4271 91.0284 54.6383 96.5737 46.0815C98.6643 42.8948 101.436 40.2114 104.688 38.2247C109.208 35.3558 114.311 33.5312 119.625 32.8838C125.787 32.2589 132.008 33.1683 137.733 35.5307C138.077 35.623 138.443 35.5762 138.752 35.4005C139.062 35.2247 139.29 34.9341 139.386 34.5917C139.472 34.2483 139.423 33.885 139.248 33.5771C139.073 33.2693 138.787 33.0412 138.448 32.9392Z" fill="#232323"/>
<path d="M150.627 74.3981C150.887 74.1877 151.187 74.0311 151.508 73.9377C151.829 73.8443 152.166 73.8158 152.499 73.8539C152.831 73.892 153.153 73.9959 153.444 74.1596C153.736 74.3234 153.993 74.5436 154.198 74.8074C154.702 75.5214 154.702 76.564 154.72 77.4006C154.745 78.4096 154.659 79.4184 154.464 80.4087C154.116 82.2896 153.374 84.0758 152.288 85.6505C151.53 86.7089 150.119 88.1502 148.668 87.8904C148.324 87.8058 147.962 87.8559 147.654 88.0305C147.347 88.2051 147.118 88.4908 147.015 88.8289C146.923 89.1725 146.97 89.5385 147.145 89.8478C147.321 90.1571 147.611 90.3851 147.953 90.4825C152.163 91.2295 155.009 87.0891 156.321 83.6599C157.096 81.623 157.465 79.4539 157.406 77.2752C157.345 75.1574 156.858 73.1085 154.954 71.9186C153.988 71.3428 152.865 71.0886 151.746 71.1927C150.626 71.2968 149.569 71.7537 148.726 72.4976C148.477 72.751 148.337 73.0923 148.337 73.4478C148.337 73.8034 148.477 74.1446 148.726 74.3981C148.982 74.6435 149.322 74.7805 149.677 74.7805C150.031 74.7805 150.371 74.6435 150.627 74.3981Z" fill="#232323"/>
<path d="M161.244 208.656C160.661 200.705 159.239 187.658 159.239 183.771C159.239 183.521 159.252 183.229 159.275 182.906L159.436 183.114C162.212 188.539 166 190.695 170.599 191.897C175.198 193.099 180.672 191.301 182.94 187.124C183.783 185.571 184.009 183.784 184.279 182.038C185.039 177.144 184.318 173.29 183.2 169.2C182.192 165.549 180.831 162.004 179.136 158.617C176.35 152.075 165.898 129.51 156.668 122.996C153.252 121.596 147.336 118.404 146.732 118.791C141.455 121.871 131.173 124.621 123.367 124.59C115.46 124.433 107.689 122.506 100.625 118.951C99.9927 118.588 94.5925 121.303 91.1224 122.776L90.6318 123C87.3752 124.46 84.4484 126.565 82.0286 129.188C78.7013 132.756 73.6235 146.44 71.508 149.55L70.733 151.46C69.9233 147.723 69.1651 144.043 68.4545 140.149C68.4119 139.911 68.2844 139.697 68.0959 139.547C67.9074 139.397 67.6707 139.32 67.4298 139.331C63.3869 139.516 51.6892 141.739 48.3519 142.792C48.1366 142.86 47.9514 143 47.827 143.189C47.7027 143.377 47.6468 143.603 47.6687 143.828C48.559 153.089 48.8502 163.482 50.8493 172.934C52.2716 179.671 54.7858 186.2 60.9454 189.28C63.2454 190.475 65.7878 191.128 68.3788 191.192C70.9698 191.255 73.5411 190.725 75.8964 189.644C79.6314 187.947 84.1335 184.089 87.2301 181.474L88.4743 180.423C88.6198 181.534 88.7056 182.651 88.7313 183.771C88.7313 187.658 87.309 200.705 86.7267 208.656H161.244Z" fill="#FAFCFC"/>
<path d="M162.586 208.656C162.25 204.064 161.799 199.478 161.384 194.891C161.055 191.26 160.61 187.592 160.582 183.942C160.564 181.474 161.09 178.996 161.366 176.55C161.364 176.195 161.222 175.854 160.97 175.602C160.719 175.351 160.378 175.209 160.022 175.207C159.668 175.215 159.331 175.359 159.081 175.609C158.831 175.859 158.687 176.197 158.678 176.55C158.418 178.857 157.966 181.17 157.899 183.494C157.892 184.913 157.957 186.332 158.093 187.745C158.42 192.232 158.866 196.711 159.269 201.191C159.493 203.678 159.714 206.166 159.897 208.657C159.905 209.011 160.05 209.348 160.3 209.598C160.55 209.848 160.887 209.993 161.241 210.001C161.596 209.998 161.937 209.856 162.188 209.604C162.439 209.353 162.582 209.013 162.585 208.657L162.586 208.656Z" fill="#232323"/>
<path d="M157.026 121.7C154.226 120.544 151.324 118.9 148.388 117.78C147.926 117.576 147.432 117.452 146.928 117.415C146.228 117.405 145.64 117.874 145.045 118.183C143.526 118.954 141.952 119.614 140.337 120.158C132.417 122.902 123.987 124.022 115.693 122.534C111.433 121.794 107.281 120.531 103.33 118.773C102.556 118.327 101.747 117.945 100.911 117.629C100.356 117.534 99.7856 117.595 99.2631 117.805C97.7518 118.335 96.2724 118.952 94.8321 119.653C91.3458 121.228 87.7693 122.621 84.7069 124.964C83.226 126.042 81.8777 127.292 80.6897 128.686C79.8972 129.697 79.192 130.774 78.582 131.905C75.7139 137.041 73.7725 142.63 70.9811 147.799C70.784 148.164 70.579 148.527 70.3478 148.869C69.3807 150.309 71.7079 151.656 72.6683 150.226C73.9439 148.327 74.8062 146.103 75.7481 144.029C77.0488 141.157 78.3239 138.271 79.7462 135.456C80.3655 134.229 81.0095 133.01 81.7385 131.845C81.8864 131.609 82.0376 131.375 82.1943 131.144C82.2727 131.029 82.3528 130.915 82.4346 130.802C82.4906 130.727 82.6905 130.462 82.527 130.67C83.0038 130.087 83.5208 129.538 84.0741 129.027C85.4969 127.654 87.0789 126.455 88.7862 125.457C90.3813 124.588 92.0211 123.803 93.6988 123.106C95.2504 122.408 96.8105 121.669 98.3666 121.015C98.9446 120.761 99.5363 120.539 100.139 120.351C100.247 120.319 100.358 120.295 100.466 120.264C100.69 120.199 100.567 120.286 100.401 120.264C100.793 120.313 99.7436 119.931 100.038 120.157C100.236 120.281 100.445 120.387 100.663 120.473C104.476 122.337 108.497 123.741 112.641 124.654C116.97 125.678 121.421 126.082 125.863 125.857C129.927 125.578 133.949 124.872 137.865 123.75C139.688 123.243 141.483 122.637 143.24 121.935C144.071 121.599 144.896 121.245 145.704 120.856C146.04 120.693 146.374 120.524 146.705 120.348C146.873 120.258 147.041 120.17 147.209 120.068C147.275 120.023 147.344 119.983 147.417 119.948C147.395 119.936 146.96 120.097 146.884 120.1C147.018 120.095 146.54 119.999 146.796 120.087C146.886 120.117 146.984 120.133 147.076 120.16C147.32 120.231 147.559 120.323 147.796 120.415C148.291 120.608 148.866 120.869 149.494 121.159C151.022 121.862 152.533 122.603 154.062 123.304C154.809 123.646 155.561 123.974 156.318 124.289C156.662 124.381 157.028 124.335 157.338 124.159C157.647 123.983 157.875 123.693 157.972 123.35C158.058 123.007 158.008 122.644 157.833 122.336C157.658 122.028 157.372 121.799 157.033 121.697L157.026 121.7Z" fill="#232323"/>
<path d="M81.9548 142.965C82.7348 148.901 83.5585 154.836 84.5805 160.737C85.1819 164.209 85.6954 167.712 86.1512 171.195C86.6507 175.006 87.1731 178.844 87.3534 182.687C87.5096 186.015 87.0678 189.398 86.7761 192.71C86.3074 198.026 85.7682 203.336 85.3762 208.658C85.3762 209.015 85.5178 209.357 85.7698 209.609C86.0218 209.861 86.3637 210.002 86.7201 210.002C87.0765 210.002 87.4183 209.861 87.6704 209.609C87.9224 209.357 88.064 209.015 88.064 208.658C88.4151 203.899 88.8838 199.145 89.3122 194.389C89.6341 190.819 90.1051 187.189 90.0681 183.598C89.9331 179.987 89.5917 176.388 89.0456 172.816C88.5736 169.074 88.073 165.33 87.4464 161.61C86.4011 155.41 85.466 149.196 84.6409 142.967C84.6297 142.615 84.4845 142.279 84.2349 142.03C83.9853 141.78 83.6499 141.635 83.297 141.624C82.9412 141.625 82.6005 141.768 82.3489 142.019C82.0972 142.271 81.955 142.612 81.9531 142.967L81.9548 142.965Z" fill="#232323"/>
<path d="M178.264 106.737L177.891 112.254C177.893 112.609 178.035 112.95 178.286 113.202C178.538 113.453 178.879 113.596 179.235 113.598C179.588 113.589 179.925 113.445 180.176 113.195C180.426 112.945 180.57 112.607 180.578 112.254L180.951 106.737C180.949 106.382 180.807 106.041 180.556 105.789C180.304 105.538 179.963 105.395 179.607 105.394C179.254 105.402 178.916 105.546 178.666 105.796C178.416 106.046 178.272 106.384 178.264 106.737Z" fill="#232323"/>
<path d="M186.436 119.986C188.211 119.538 190 119.117 191.811 118.834C192.149 118.741 192.437 118.52 192.614 118.218C192.704 118.065 192.762 117.897 192.786 117.722C192.81 117.547 192.799 117.369 192.754 117.199C192.71 117.028 192.632 116.867 192.525 116.727C192.418 116.586 192.285 116.468 192.132 116.379C191.813 116.216 191.447 116.168 191.097 116.243C189.286 116.527 187.497 116.947 185.721 117.396C185.551 117.443 185.392 117.523 185.253 117.632C185.113 117.74 184.997 117.875 184.91 118.029C184.822 118.182 184.766 118.351 184.745 118.526C184.723 118.702 184.736 118.879 184.783 119.049C184.83 119.22 184.91 119.379 185.018 119.518C185.127 119.657 185.261 119.774 185.415 119.861C185.568 119.948 185.738 120.004 185.913 120.026C186.088 120.048 186.266 120.035 186.436 119.988V119.986Z" fill="#232323"/>
<path d="M184.66 115.099C185.904 113.692 187.242 112.37 188.662 111.141C188.913 110.888 189.053 110.547 189.053 110.191C189.053 109.835 188.913 109.494 188.662 109.241C188.406 108.997 188.066 108.86 187.712 108.86C187.358 108.86 187.018 108.997 186.762 109.241C185.341 110.469 184.004 111.791 182.759 113.198C182.514 113.455 182.375 113.795 182.367 114.15C182.367 114.416 182.445 114.677 182.593 114.898C182.74 115.12 182.95 115.293 183.196 115.395C183.442 115.497 183.713 115.523 183.974 115.471C184.235 115.419 184.475 115.291 184.663 115.102L184.66 115.099Z" fill="#232323"/>
<path d="M177.973 159.295C179.801 162.925 181.219 166.746 182.201 170.689C182.703 172.548 183.034 174.45 183.19 176.37C183.308 178.465 183.188 180.567 182.834 182.636C182.55 184.427 182.171 186.243 180.964 187.663C179.977 188.82 178.71 189.704 177.284 190.232C174.204 191.37 171.085 190.904 168.112 189.672C164.703 188.264 162.272 185.672 160.594 182.434C159.798 180.897 157.477 182.255 158.273 183.79C159.932 187.186 162.651 189.949 166.02 191.661C169.323 193.256 172.984 194.089 176.612 193.237C180.439 192.341 183.766 189.654 184.907 185.82C185.53 183.569 185.871 181.249 185.92 178.913C185.976 176.667 185.772 174.421 185.31 172.222C184.296 167.254 182.608 162.448 180.294 157.936C179.507 156.396 177.187 157.754 177.973 159.293V159.295Z" fill="#232323"/>
<path d="M41.0716 98.7673C40.5317 98.483 39.9222 98.3577 39.3139 98.4062C38.8402 98.5347 38.3923 98.7445 37.9902 99.026C37.6932 99.2985 37.5034 99.6681 37.4548 100.068C37.3736 101.196 37.6394 102.322 38.2164 103.295C38.4057 103.596 40.8824 108.287 41.6618 109.562C41.8018 109.791 45.0614 114.914 46.6198 117.225C44.2679 114.201 39.66 108.407 38.5395 107.073C36.9946 105.233 35.9637 104.385 34.8538 104.329C34.5053 104.291 34.1528 104.331 33.8212 104.444C33.4897 104.558 33.1872 104.744 32.9354 104.988C32.6836 105.231 32.4886 105.528 32.3643 105.856C32.2399 106.183 32.1892 106.534 32.2158 106.884C32.3346 108.413 33.8101 109.995 34.6842 111.254C37.5461 115.378 38.9684 117.216 41.8892 121.355C38.9399 119.176 36.3192 117.345 32.9382 115.09C32.2354 114.622 30.7616 114.4 30.121 114.949C29.9065 115.102 29.7246 115.297 29.5859 115.521C29.4472 115.745 29.3544 115.994 29.313 116.254C29.2945 117.25 29.7979 118.046 30.4682 118.987C31.3321 120.01 32.274 120.965 33.2854 121.843C35.5476 124.064 37.2197 125.209 39.6129 128.135C43.1631 132.47 46.8365 136.138 48.4044 137.887C48.8432 139.25 49.1947 140.639 49.4565 142.046L49.5573 142.447C54.8252 141.175 60.1578 140.189 65.5319 139.491V139.422C65.4759 138.07 65.196 136.042 65.196 134.745L65.1534 134.093C66.7017 132.785 67.4772 131.26 68.2948 129.205C69.3873 126.601 70.2324 123.9 70.8191 121.137C71.2192 119.307 71.4616 117.447 71.5437 115.575C71.5545 115.211 71.4837 114.849 71.3366 114.516C71.1894 114.183 70.9695 113.887 70.6931 113.65C70.0221 113.427 69.2942 113.444 68.6347 113.699C67.8866 114.091 67.2281 115.528 66.5555 117.025C66.0329 118.406 65.2986 119.698 64.379 120.854C63.9126 121.354 63.2749 121.661 62.5928 121.713C61.9106 121.765 61.2339 121.558 60.6972 121.134C59.9877 120.544 59.6249 119.345 59.5185 118.428C59.3735 117.179 59.2984 116.217 59.8422 115.084C60.3859 113.95 61.6464 113.159 62.5899 113.303C63.3122 113.415 64.8981 113.899 65.6277 113.869C65.965 113.842 66.2927 113.743 66.5884 113.579C66.8841 113.414 67.1408 113.188 67.3412 112.915C67.5416 112.643 67.6809 112.33 67.7496 111.999C67.8182 111.667 67.8148 111.325 67.7393 110.995C67.5153 110.174 65.1299 108.88 64.0671 108.363C62.8688 107.779 61.7068 107.038 60.3864 107.142C58.7554 107.372 57.275 108.219 56.2506 109.509C55.3605 110.458 54.5754 111.5 53.9088 112.617C53.5823 113.154 53.3214 113.671 52.9949 114.208C52.9034 114.371 52.7904 114.522 52.659 114.656C52.5832 114.721 52.4865 114.757 52.3865 114.757C52.2865 114.757 52.1898 114.721 52.1141 114.656C51.9374 114.432 51.774 114.198 51.6247 113.956C49.8507 111.069 48.3108 108.439 46.0945 105.134C45.4226 104.133 42.9414 100.486 42.1132 99.6118C41.8124 99.2775 41.4609 98.9925 41.0716 98.7673Z" fill="white"/>
<path d="M49.3593 136.939C47.8278 135.239 46.2207 133.607 44.678 131.917C42.5653 129.604 40.6703 127.072 38.4624 124.849C36.5781 122.951 34.527 121.217 32.6046 119.357C32.1294 118.914 31.7028 118.421 31.3324 117.887C31.1353 117.616 30.9637 117.327 30.82 117.025C30.7537 116.877 30.705 116.721 30.675 116.562C30.661 116.474 30.7097 116.125 30.6442 116.322C30.7066 116.202 30.8047 116.104 30.9251 116.042C31.0454 115.98 31.1821 115.957 31.3162 115.976C31.8307 116.025 32.3185 116.228 32.7161 116.558C35.5905 118.482 38.4215 120.469 41.209 122.517C41.5174 122.695 41.8832 122.743 42.2273 122.653C42.5714 122.563 42.8662 122.341 43.0479 122.035C43.2197 121.725 43.2654 121.362 43.1756 121.019C43.0858 120.676 42.8674 120.382 42.5658 120.196C39.8186 118.169 37.0252 116.208 34.1854 114.313C32.9731 113.501 31.4724 112.95 30.0221 113.493C29.2274 113.813 28.591 114.434 28.2512 115.22C27.9113 116.007 27.8956 116.895 28.2073 117.693C28.8577 119.232 29.8646 120.595 31.1448 121.669C32.2647 122.714 33.3634 123.776 34.4984 124.805C35.604 125.782 36.6578 126.817 37.6555 127.905C38.8376 129.222 39.9312 130.619 41.1015 131.948C43.1667 134.294 45.3662 136.515 47.4576 138.836C48.6179 140.124 50.5139 138.22 49.3582 136.935L49.3593 136.939Z" fill="#232323"/>
<path d="M42.1838 119.457C40.6265 117.273 39.0384 115.109 37.4862 112.92C36.6524 111.744 35.8355 110.559 34.9748 109.404C34.4148 108.653 33.2669 107.371 33.6034 106.351C33.6483 106.224 33.7188 106.109 33.8104 106.011C33.902 105.913 34.0129 105.835 34.136 105.781C34.3337 105.702 34.5459 105.666 34.7586 105.674C34.8197 105.674 35.1349 105.73 34.879 105.677C35.0097 105.703 35.1374 105.742 35.2604 105.793C35.0957 105.722 35.551 105.976 35.5874 106C35.7591 106.118 35.9215 106.249 36.0734 106.392C36.6143 106.901 37.1206 107.445 37.5893 108.021C38.7305 109.379 39.8252 110.778 40.93 112.164C42.5192 114.159 44.099 116.162 45.6695 118.172C45.9227 118.423 46.2649 118.564 46.6215 118.564C46.9781 118.564 47.3202 118.423 47.5734 118.172C47.8172 117.915 47.9532 117.575 47.9532 117.221C47.9532 116.868 47.8172 116.527 47.5734 116.271C46.0055 114.259 44.4257 112.256 42.8339 110.264C41.5174 108.611 40.239 106.904 38.8145 105.339C37.9544 104.397 36.9335 103.422 35.6596 103.1C34.9862 102.932 34.2808 102.944 33.613 103.132C32.9452 103.321 32.3382 103.68 31.8519 104.175C29.2985 106.881 32.2539 110.111 33.8342 112.378C35.8103 115.214 37.8597 117.997 39.8649 120.812C40.0516 121.113 40.3463 121.33 40.6883 121.42C41.0304 121.51 41.3939 121.465 41.7039 121.295C42.0095 121.113 42.2313 120.818 42.3215 120.474C42.4117 120.13 42.363 119.764 42.186 119.456L42.1838 119.457Z" fill="#232323"/>
<path d="M47.7801 116.546C45.1931 112.706 42.7315 108.824 40.5348 104.749C40.1506 104.037 39.7727 103.322 39.3762 102.616C39.0408 102.043 38.8337 101.405 38.7692 100.745C38.7225 100.488 38.7652 100.224 38.8902 99.9953C38.7619 100.256 38.8342 100.071 39.0318 99.9629C39.1666 99.8746 39.312 99.8038 39.4647 99.7523C39.9057 99.7276 40.3416 99.8579 40.6966 100.121C40.9309 100.309 41.1443 100.522 41.3333 100.756C41.5231 100.975 41.6693 101.17 41.7381 101.26C42.5714 102.365 43.362 103.505 44.1426 104.648C46.3707 107.899 48.3983 111.273 50.4612 114.631C51.3644 116.103 53.6905 114.754 52.7823 113.274C50.7468 109.958 48.7444 106.626 46.5471 103.413C45.7111 102.19 44.8672 100.967 43.9713 99.7893C42.9678 98.4723 41.8591 97.3176 40.1238 97.1015C39.6451 97.0274 39.1563 97.0529 38.688 97.1766C38.2196 97.3002 37.7819 97.5192 37.4022 97.8199C37.0225 98.1206 36.7089 98.4965 36.4813 98.9241C36.2536 99.3516 36.1167 99.8215 36.0791 100.304C35.9896 101.769 36.5949 103.124 37.2769 104.374C38.3688 106.373 39.3745 108.438 40.5807 110.371C42.1631 112.907 43.787 115.417 45.4524 117.901C46.4138 119.329 48.7433 117.985 47.7734 116.544L47.7801 116.546Z" fill="#232323"/>
<path d="M63.8516 134.747C63.8566 136.312 64.1215 137.863 64.1875 139.424C64.1875 139.78 64.3291 140.122 64.5812 140.374C64.8332 140.626 65.175 140.768 65.5315 140.768C65.8879 140.768 66.2297 140.626 66.4817 140.374C66.7338 140.122 66.8754 139.78 66.8754 139.424C66.807 137.863 66.5394 136.312 66.5394 134.747C66.5394 134.571 66.5046 134.396 66.4371 134.233C66.3695 134.07 66.2706 133.922 66.1458 133.797C66.021 133.672 65.8728 133.573 65.7098 133.506C65.5467 133.438 65.372 133.403 65.1955 133.403C65.019 133.403 64.8442 133.438 64.6812 133.506C64.5181 133.573 64.37 133.672 64.2452 133.797C64.1204 133.922 64.0214 134.07 63.9539 134.233C63.8863 134.396 63.8516 134.571 63.8516 134.747Z" fill="#232323"/>
<path d="M64.4729 136.228C66.6048 134.888 68.2529 132.902 69.1766 130.56C70.5016 127.564 71.5033 124.436 72.1645 121.227C72.4685 119.733 72.6908 118.222 72.8303 116.703C72.935 115.382 72.8863 113.939 71.898 112.923C71.0267 112.024 69.5103 111.971 68.3775 112.36C67.0336 112.823 66.3443 114.292 65.7843 115.489C65.2393 116.856 64.576 118.172 63.802 119.423C63.316 120.115 62.3685 120.839 61.5409 120.101C60.7822 119.425 60.739 117.849 60.757 116.929C60.7754 115.977 61.2732 114.817 62.317 114.627C62.1664 114.655 62.5567 114.637 62.3976 114.627C62.2185 114.615 62.7039 114.692 62.6558 114.683C62.8927 114.734 63.1284 114.792 63.3641 114.848C64.0161 115.022 64.6814 115.142 65.3531 115.207C65.9809 115.238 66.6056 115.102 67.1634 114.812C67.7212 114.522 68.1919 114.09 68.5276 113.558C68.8572 113.077 69.0611 112.52 69.1207 111.94C69.1802 111.36 69.0936 110.774 68.8686 110.235C68.3725 109.288 67.3192 108.651 66.4311 108.118C65.2488 107.399 64.0133 106.772 62.7353 106.243C61.9454 105.925 61.0948 105.787 60.245 105.839C59.3952 105.89 58.5675 106.13 57.8216 106.54C56.4083 107.257 55.3886 108.431 54.3896 109.624C53.8847 110.216 53.4226 110.844 53.0071 111.502C52.7797 111.869 52.5653 112.245 52.353 112.622C52.2466 112.81 52.1431 113 52.035 113.187C51.9697 113.303 51.9025 113.417 51.8334 113.53C51.6426 113.79 51.708 113.766 52.0294 113.46H52.7439C53.1598 113.89 53.2893 114.001 53.1325 113.793C53.0894 113.733 53.0468 113.673 53.0048 113.612C52.9302 113.5 52.857 113.388 52.7853 113.276C51.8821 111.804 49.5566 113.153 50.4643 114.633C50.6964 115.094 51.0283 115.498 51.4358 115.815C51.7832 116.031 52.1941 116.122 52.6001 116.072C53.0062 116.022 53.3829 115.835 53.6678 115.541C54.1195 114.995 54.5003 114.394 54.8012 113.752C55.1509 113.112 55.5438 112.495 55.9771 111.908C57.377 110.087 59.3677 107.719 61.9127 108.793C62.9757 109.257 64.0063 109.791 64.9976 110.393C65.4016 110.623 65.7888 110.88 66.1561 111.165C66.2093 111.21 66.6282 111.609 66.4501 111.417C66.6046 111.585 66.3515 111.423 66.4428 111.356C66.435 111.361 66.4596 111.484 66.4563 111.536C66.4566 111.675 66.4274 111.813 66.3706 111.941C66.3137 112.068 66.2305 112.182 66.1264 112.275C66.0223 112.368 65.8996 112.438 65.7666 112.481C65.6335 112.523 65.493 112.536 65.3543 112.52C64.4432 112.443 63.2494 111.905 62.2022 111.955C61.5222 112.024 60.8676 112.251 60.2902 112.617C59.7128 112.983 59.2285 113.478 58.8755 114.063C58.1674 115.313 57.9104 116.768 58.1475 118.185C58.2959 119.537 58.6213 120.957 59.6107 121.961C60.12 122.448 60.7484 122.791 61.4326 122.958C62.1169 123.124 62.8329 123.107 63.5086 122.909C66.3275 122.115 67.2296 118.574 68.3887 116.267C68.5905 115.788 68.8604 115.341 69.19 114.94C69.2494 114.887 69.4297 114.852 69.2191 114.914C69.3161 114.884 69.4154 114.862 69.5159 114.848C69.5086 114.848 70.0602 114.832 69.9795 114.831C70.2914 114.837 70.0462 114.898 70.0087 114.821C69.979 114.761 70.1509 115.732 70.0932 115.012C70.1039 115.146 70.18 115.281 70.1962 115.413C70.2311 116.063 70.1935 116.714 70.0843 117.355C69.6642 120.828 68.8047 124.233 67.5263 127.489C67.0736 128.822 66.4922 130.107 65.7905 131.327C65.1109 132.382 64.1953 133.265 63.1161 133.906C61.6507 134.818 62.9985 137.144 64.4729 136.227V136.228Z" fill="#232323"/>
<path d="M47.1125 138.246C47.5689 139.603 47.9206 140.994 48.1647 142.405C48.2575 142.742 48.4786 143.03 48.7807 143.208C49.0884 143.387 49.4549 143.438 49.7997 143.347C50.1444 143.257 50.4392 143.033 50.619 142.725C50.7844 142.407 50.8324 142.04 50.7545 141.69C50.5107 140.279 50.1589 138.889 49.7024 137.532C49.6076 137.188 49.3802 136.896 49.0702 136.72C48.7602 136.544 48.393 136.499 48.0493 136.593C47.7057 136.688 47.4138 136.915 47.2377 137.225C47.0617 137.535 47.0161 137.903 47.1109 138.246H47.1125Z" fill="#232323"/>
<path d="M75.035 164.589C73.9353 159.647 72.803 154.711 71.7447 149.759C71.2377 147.39 70.7524 145.016 70.2888 142.638C70.1768 142.063 70.0674 141.487 69.9606 140.911C69.9075 140.295 69.7481 139.692 69.4897 139.129C68.9297 138.187 67.9403 137.941 66.9245 138.015C63.7747 138.303 60.6427 138.762 57.5423 139.388C54.5393 139.938 51.5099 140.497 48.5684 141.324C47.6635 141.579 46.8325 141.957 46.4859 142.909C46.0939 143.983 46.4758 145.416 46.5704 146.536C46.7771 148.99 46.954 151.447 47.1427 153.902C47.5381 159.037 47.9866 164.173 48.8086 169.259C50.1111 177.313 52.4926 186.692 60.5169 190.559C64.9192 192.746 70.0066 193.108 74.6744 191.567C78.906 190.116 82.4881 187.17 85.8865 184.353C86.6565 183.714 87.4192 183.068 88.1824 182.423C88.4317 182.17 88.5714 181.828 88.5714 181.473C88.5714 181.117 88.4317 180.776 88.1824 180.523C87.9268 180.277 87.5863 180.14 87.2321 180.14C86.8779 180.14 86.5374 180.277 86.2819 180.523C83.225 183.105 80.1576 185.786 76.6505 187.752C73.0428 189.81 68.7705 190.368 64.7552 189.305C61.0162 188.337 57.7993 185.954 55.7829 182.66C53.8046 179.445 52.7922 175.747 52.0418 172.077C50.1643 162.897 49.9241 153.494 49.0477 144.19C49.0448 144.068 49.0332 143.945 49.013 143.824C49.0035 143.824 48.8551 143.955 48.8512 144.026C48.8472 144.096 48.8036 144.026 48.9576 144.008C49.2063 143.956 49.4514 143.888 49.6911 143.804C50.2455 143.656 50.8038 143.52 51.3626 143.39C52.8185 143.05 54.2862 142.744 55.7549 142.455C58.7787 141.858 62.0926 141.26 64.9641 140.904C65.542 140.833 66.1204 140.767 66.7 140.72C66.9435 140.723 67.187 140.707 67.4279 140.672C67.415 140.701 67.1401 140.51 67.1569 140.504C67.2002 140.84 67.2617 141.173 67.3411 141.503C67.7577 143.738 68.1992 145.969 68.6654 148.195C69.6062 152.713 70.6253 157.215 71.636 161.719C71.9037 162.914 72.1708 164.108 72.4374 165.303C72.8125 166.99 75.4052 166.277 75.0289 164.588L75.035 164.589Z" fill="#232323"/>
<path d="M131.742 147.984C131.25 146.234 131.098 144.407 131.294 142.6C131.44 140.904 131.585 138.535 132.43 137.045C134.55 137.222 135.543 134.301 136.446 132.815C141.099 125.172 147.011 121.92 154.127 121.103C157.996 120.708 161.9 121.342 165.445 122.942C168.989 124.542 172.048 127.051 174.31 130.214C175.236 131.511 176.799 134.414 178.851 133.971C180.419 137.779 181.811 142.001 180.652 145.959C179.927 148.212 178.576 150.213 176.756 151.726C174.031 154.097 170.587 155.521 167.068 156.329C163.378 157.175 159.594 157.347 155.834 157.653C151.971 158.016 148.077 157.882 144.248 157.255C139.314 156.38 133.914 153.627 131.999 148.71C131.902 148.472 131.817 148.23 131.742 147.984Z" fill="#FF5890"/>
<path d="M154.121 121.106C147.005 121.923 141.093 125.175 136.44 132.818C135.472 134.408 134.401 137.649 131.952 136.962C130.956 136.682 130.518 135.824 130.266 134.867C130.088 133.661 130.214 132.429 130.632 131.284C134.436 121.153 143.175 114.95 154.038 114.569C165.144 114.18 173.789 117.495 179.461 127.443C179.938 128.283 180.749 130.601 180.668 131.558C180.587 132.515 180.358 133.261 179.478 133.737C177.113 135.013 175.323 131.644 174.305 130.218C172.042 127.054 168.984 124.545 165.439 122.945C161.894 121.345 157.99 120.71 154.121 121.106Z" fill="white"/>
<path d="M152.04 106.876C152.94 107.598 153.538 108.631 153.715 109.772C153.892 110.913 153.636 112.078 152.997 113.04C151.631 114.994 148.449 115.326 146.767 114.048C144.404 112.256 144.919 109.54 146.263 107.671C147.411 106.081 150.292 105.492 152.04 106.876Z" fill="white"/>
<path d="M161.165 106.391C162.065 107.114 162.663 108.147 162.84 109.288C163.017 110.428 162.761 111.594 162.122 112.555C160.756 114.51 157.574 114.842 155.892 113.563C153.529 111.771 154.044 109.055 155.388 107.186C156.536 105.595 159.421 105.008 161.165 106.391Z" fill="white"/>
<path d="M154.122 119.762C149.856 120.266 145.743 121.606 142.282 124.211C140.456 125.592 138.824 127.212 137.428 129.027C136.621 130.051 135.881 131.128 135.214 132.249C134.789 132.977 134.442 133.75 133.996 134.467C133.819 134.777 133.602 135.062 133.351 135.316C133.177 135.527 132.934 135.669 132.665 135.716C132.889 135.678 132.329 135.678 132.475 135.705C132.333 135.689 132.197 135.637 132.08 135.555C131.763 135.23 131.568 134.805 131.528 134.352C131.248 132.434 132.421 130.267 133.306 128.607C135.206 124.987 138.008 121.92 141.442 119.703C144.992 117.479 149.047 116.188 153.23 115.949C157.441 115.61 161.677 116.079 165.711 117.331C169.417 118.574 172.718 120.796 175.264 123.761C176.634 125.249 177.764 126.941 178.613 128.777C178.794 129.232 178.951 129.696 179.083 130.167C179.209 130.562 179.292 130.969 179.329 131.382C179.347 131.701 179.28 132.02 179.133 132.305C179.048 132.415 178.939 132.505 178.816 132.568C178.692 132.632 178.556 132.667 178.416 132.672C178.296 132.681 178.175 132.653 178.07 132.592C178.154 132.625 177.82 132.446 177.734 132.385C177.401 132.121 177.101 131.82 176.838 131.486C176.365 130.917 175.946 130.214 175.502 129.583C174.078 127.57 172.348 125.792 170.376 124.313C166.625 121.499 162.117 119.875 157.433 119.648C156.329 119.598 155.223 119.634 154.125 119.756C153.771 119.766 153.435 119.911 153.186 120.161C152.936 120.411 152.791 120.747 152.781 121.1C152.783 121.456 152.925 121.797 153.177 122.048C153.428 122.3 153.769 122.442 154.125 122.444C158.904 121.933 163.712 123.094 167.732 125.73C169.78 127.058 171.571 128.747 173.017 130.713C174.207 132.348 175.225 134.359 177.221 135.129C177.762 135.329 178.345 135.392 178.916 135.312C179.488 135.233 180.031 135.012 180.496 134.672C181.003 134.278 181.406 133.767 181.671 133.183C181.936 132.599 182.054 131.959 182.016 131.319C181.968 129.155 180.841 127 179.694 125.23C177.272 121.357 173.849 118.211 169.786 116.122C165.526 114.224 160.918 113.228 156.254 113.198C151.589 113.168 146.969 114.103 142.684 115.946C136.409 119.043 131.598 124.476 129.281 131.078C128.543 133.273 128.485 136.638 130.821 137.934C133.093 139.194 135.178 137.688 136.358 135.756C136.848 134.954 137.23 134.093 137.724 133.292C138.407 132.17 139.168 131.098 140.002 130.083C142.827 126.598 146.702 124.119 151.049 123.015C152.06 122.762 153.085 122.573 154.12 122.45C154.473 122.439 154.809 122.294 155.058 122.045C155.308 121.795 155.453 121.459 155.464 121.106C155.461 120.751 155.319 120.41 155.068 120.159C154.817 119.907 154.477 119.765 154.122 119.762Z" fill="#232323"/>
<path d="M151.095 107.826C151.284 107.977 151.463 108.141 151.631 108.316C151.715 108.405 151.793 108.499 151.873 108.592C151.688 108.379 151.891 108.629 151.954 108.728C152.005 108.81 152.054 108.894 152.099 108.979C152.13 109.035 152.284 109.328 152.194 109.157C152.104 108.986 152.241 109.29 152.256 109.338C152.289 109.437 152.318 109.537 152.343 109.639C152.368 109.739 152.385 109.839 152.407 109.94C152.459 110.188 152.389 109.674 152.407 109.925C152.42 110.135 152.433 110.343 152.426 110.554C152.422 110.649 152.416 110.744 152.407 110.84C152.404 110.879 152.397 110.92 152.395 110.96C152.388 111.105 152.419 110.792 152.416 110.8C152.367 110.973 152.329 111.149 152.304 111.327C152.261 111.49 152.207 111.649 152.152 111.809C152.08 112.014 152.107 111.852 152.186 111.738C152.143 111.813 152.106 111.89 152.074 111.969C152.016 112.081 151.953 112.19 151.884 112.295C151.861 112.33 151.835 112.363 151.813 112.398C151.732 112.529 151.885 112.295 151.886 112.305C151.892 112.354 151.678 112.538 151.646 112.571C151.583 112.634 151.518 112.695 151.45 112.753C151.421 112.779 151.342 112.865 151.313 112.865C151.3 112.865 151.542 112.714 151.406 112.789C151.224 112.89 151.057 113.017 150.869 113.112C150.829 113.133 150.789 113.151 150.748 113.172C150.519 113.29 150.82 113.148 150.822 113.144C150.796 113.186 150.616 113.222 150.568 113.238C150.354 113.311 150.135 113.369 149.913 113.413C149.869 113.421 149.824 113.428 149.78 113.437C149.721 113.403 149.649 113.463 149.78 113.437L149.869 113.425C149.824 113.43 149.779 113.435 149.735 113.439C149.69 113.443 149.645 113.447 149.6 113.449C149.392 113.462 149.184 113.462 148.976 113.449C148.914 113.446 148.596 113.383 148.804 113.439C149.024 113.499 148.687 113.416 148.639 113.407C148.444 113.367 148.252 113.313 148.064 113.246C148.025 113.232 147.986 113.214 147.947 113.201C147.779 113.145 148.187 113.327 148.039 113.238C147.97 113.196 147.891 113.165 147.82 113.126C147.737 113.079 147.659 113.026 147.579 112.977C147.551 112.96 147.429 112.888 147.57 112.977C147.738 113.082 147.469 112.89 147.453 112.877C147.276 112.723 147.127 112.55 146.965 112.381C146.862 112.274 147.01 112.442 147.018 112.454C146.99 112.413 146.962 112.373 146.932 112.332C146.859 112.226 146.792 112.115 146.731 112.001C146.709 111.959 146.688 111.916 146.666 111.875C146.54 111.647 146.679 111.931 146.687 111.94C146.639 111.897 146.614 111.742 146.595 111.681C146.563 111.579 146.539 111.477 146.513 111.373C146.504 111.329 146.496 111.285 146.486 111.24C146.43 110.996 146.492 111.453 146.491 111.286C146.491 111.091 146.467 110.899 146.475 110.704C146.475 110.682 146.493 110.435 146.495 110.435C146.514 110.435 146.442 110.735 146.483 110.524C146.495 110.464 146.504 110.405 146.515 110.346C146.558 110.137 146.613 109.932 146.68 109.73C146.709 109.642 146.742 109.557 146.773 109.471C146.785 109.437 146.847 109.288 146.773 109.461C146.691 109.658 146.799 109.41 146.818 109.37C146.904 109.189 146.998 109.013 147.098 108.842C147.154 108.75 147.21 108.66 147.266 108.57C147.303 108.514 147.456 108.237 147.368 108.413C147.287 108.577 147.353 108.433 147.399 108.383C147.446 108.333 147.477 108.298 147.518 108.256C147.599 108.174 147.698 108.104 147.776 108.02C147.882 107.908 147.678 108.111 147.68 108.093C147.684 108.058 147.839 107.981 147.866 107.966C147.955 107.91 148.047 107.854 148.14 107.804C148.243 107.735 148.355 107.68 148.473 107.643C148.473 107.643 148.22 107.728 148.368 107.691C148.443 107.672 148.516 107.635 148.592 107.614C148.82 107.541 149.052 107.502 149.284 107.449C149.441 107.414 149.156 107.471 149.163 107.466C149.241 107.447 149.321 107.441 149.4 107.446C149.528 107.439 149.655 107.437 149.782 107.44C149.838 107.44 150.078 107.421 150.115 107.461C150.082 107.425 149.844 107.411 150.04 107.452C150.103 107.465 150.165 107.475 150.227 107.489C150.351 107.516 150.473 107.549 150.593 107.588C150.637 107.602 150.682 107.625 150.727 107.635C150.888 107.672 150.447 107.491 150.712 107.628C150.94 107.743 151.157 107.878 151.361 108.031C151.669 108.211 152.035 108.261 152.38 108.171C152.725 108.081 153.019 107.857 153.199 107.549C153.368 107.239 153.413 106.876 153.323 106.534C153.233 106.192 153.017 105.898 152.717 105.71C150.74 104.19 147.764 104.58 145.912 106.091C145.058 106.869 144.432 107.865 144.099 108.971C143.718 110.06 143.679 111.24 143.987 112.351C144.354 113.499 145.09 114.493 146.08 115.178C147.071 115.864 148.26 116.203 149.463 116.143C150.608 116.117 151.723 115.776 152.686 115.158C153.588 114.554 154.282 113.688 154.676 112.677C155.147 111.517 155.238 110.238 154.935 109.024C154.632 107.809 153.951 106.722 152.99 105.92C152.734 105.676 152.394 105.54 152.04 105.54C151.686 105.54 151.346 105.676 151.09 105.92C150.84 106.175 150.701 106.518 150.702 106.874C150.703 107.231 150.844 107.572 151.095 107.826Z" fill="#232323"/>
<path d="M160.218 107.341C160.407 107.493 160.585 107.656 160.753 107.831C160.837 107.92 160.915 108.015 160.995 108.108C160.811 107.894 161.014 108.144 161.076 108.243C161.128 108.325 161.176 108.409 161.222 108.494C161.252 108.55 161.406 108.843 161.316 108.672C161.227 108.501 161.363 108.805 161.379 108.854C161.411 108.953 161.44 109.053 161.465 109.155C161.49 109.254 161.508 109.355 161.529 109.455C161.582 109.704 161.511 109.189 161.529 109.44C161.546 109.649 161.553 109.86 161.548 110.07C161.545 110.165 161.539 110.26 161.53 110.355C161.526 110.395 161.519 110.435 161.517 110.475C161.511 110.621 161.541 110.307 161.539 110.315C161.489 110.488 161.452 110.664 161.427 110.842C161.383 111.006 161.33 111.165 161.274 111.324C161.202 111.529 161.229 111.367 161.307 111.254C161.265 111.328 161.228 111.405 161.195 111.485C161.138 111.597 161.075 111.705 161.006 111.81C160.984 111.845 160.957 111.878 160.935 111.913C160.854 112.045 161.007 111.81 161.008 111.821C161.014 111.869 160.8 112.054 160.768 112.086C160.705 112.149 160.64 112.21 160.572 112.269C160.543 112.294 160.464 112.378 160.435 112.381C160.423 112.381 160.664 112.23 160.528 112.304C160.345 112.405 160.178 112.532 159.991 112.627C159.951 112.648 159.91 112.667 159.87 112.687C159.641 112.805 159.942 112.663 159.944 112.66C159.919 112.702 159.738 112.738 159.69 112.754C159.476 112.827 159.257 112.885 159.035 112.928C158.991 112.937 158.946 112.944 158.902 112.953C158.842 112.918 158.771 112.979 158.902 112.953L158.991 112.94C158.946 112.946 158.902 112.951 158.857 112.954C158.812 112.957 158.767 112.962 158.722 112.965C158.515 112.977 158.306 112.977 158.098 112.965C158.037 112.961 157.718 112.899 157.926 112.955C158.145 113.014 157.809 112.932 157.761 112.922C157.566 112.882 157.374 112.828 157.186 112.761C157.147 112.747 157.109 112.73 157.069 112.717C156.901 112.661 157.309 112.843 157.161 112.753C157.091 112.711 157.013 112.68 156.942 112.641C156.859 112.595 156.782 112.541 156.7 112.492C156.674 112.476 156.551 112.403 156.693 112.492C156.861 112.597 156.591 112.405 156.576 112.392C156.399 112.238 156.249 112.065 156.087 111.896C155.984 111.789 156.132 111.958 156.14 111.969C156.112 111.928 156.084 111.889 156.054 111.847C155.981 111.741 155.914 111.631 155.853 111.517C155.83 111.475 155.81 111.432 155.787 111.39C155.662 111.163 155.801 111.446 155.809 111.455C155.761 111.413 155.736 111.257 155.717 111.196C155.685 111.095 155.661 110.992 155.635 110.889C155.625 110.845 155.619 110.8 155.608 110.756C155.552 110.511 155.615 110.969 155.612 110.802C155.612 110.607 155.588 110.415 155.597 110.22C155.597 110.197 155.615 109.95 155.617 109.95C155.636 109.95 155.564 110.251 155.605 110.039C155.616 109.98 155.626 109.92 155.638 109.861C155.68 109.653 155.735 109.447 155.802 109.245C155.831 109.158 155.864 109.073 155.895 108.986C155.907 108.952 155.969 108.803 155.895 108.976C155.813 109.173 155.92 108.926 155.94 108.885C156.026 108.705 156.119 108.529 156.22 108.357C156.276 108.265 156.332 108.175 156.391 108.086C156.427 108.03 156.581 107.752 156.493 107.928C156.412 108.092 156.477 107.948 156.524 107.899C156.571 107.849 156.602 107.813 156.642 107.772C156.724 107.689 156.823 107.62 156.901 107.535C157.007 107.423 156.803 107.626 156.805 107.608C156.809 107.574 156.964 107.496 156.991 107.481C157.08 107.425 157.171 107.369 157.265 107.32C157.367 107.25 157.48 107.196 157.598 107.158C157.598 107.158 157.345 107.244 157.493 107.206C157.568 107.187 157.641 107.15 157.717 107.129C157.945 107.056 158.177 107.017 158.408 106.965C158.566 106.929 158.281 106.987 158.287 106.981C158.365 106.963 158.446 106.956 158.525 106.961C158.652 106.954 158.78 106.952 158.907 106.956C158.963 106.956 159.203 106.937 159.24 106.977C159.206 106.94 158.969 106.926 159.165 106.967C159.228 106.981 159.29 106.99 159.352 107.004C159.475 107.031 159.597 107.064 159.718 107.103C159.761 107.118 159.807 107.14 159.852 107.15C160.013 107.187 159.572 107.007 159.837 107.143C160.065 107.258 160.282 107.393 160.485 107.546C160.638 107.635 160.806 107.694 160.981 107.718C161.156 107.742 161.334 107.731 161.505 107.686C161.675 107.641 161.836 107.563 161.976 107.457C162.117 107.35 162.235 107.217 162.324 107.064C162.493 106.754 162.538 106.391 162.448 106.049C162.358 105.708 162.142 105.413 161.842 105.226C159.864 103.705 156.888 104.095 155.037 105.606C154.183 106.385 153.557 107.38 153.224 108.487C152.843 109.576 152.804 110.755 153.112 111.866C153.479 113.014 154.215 114.008 155.206 114.694C156.196 115.379 157.385 115.719 158.589 115.659C159.733 115.633 160.848 115.292 161.812 114.674C162.713 114.069 163.407 113.203 163.801 112.192C164.273 111.033 164.364 109.754 164.061 108.539C163.758 107.325 163.077 106.238 162.116 105.436C161.86 105.192 161.519 105.055 161.166 105.055C160.812 105.055 160.471 105.192 160.215 105.436C159.966 105.69 159.826 106.033 159.826 106.389C159.827 106.746 159.967 107.088 160.218 107.341Z" fill="#232323"/>
<path d="M131.243 136.404C130.673 137.577 130.316 138.842 130.191 140.14C130.003 141.449 129.897 142.768 129.873 144.09C129.791 146.839 130.59 149.541 132.153 151.803C134.974 155.685 139.639 157.857 144.281 158.622C147.383 159.119 150.529 159.292 153.667 159.138C156.799 158.997 159.963 158.751 163.074 158.361C168.7 157.658 174.537 155.997 178.611 151.818C180.876 149.58 182.228 146.579 182.404 143.399C182.554 140.031 181.416 136.742 180.164 133.668C180.06 133.331 179.831 133.046 179.524 132.871C179.217 132.697 178.855 132.646 178.511 132.73C178.169 132.826 177.878 133.054 177.702 133.363C177.527 133.673 177.48 134.039 177.572 134.383C178.567 136.82 179.544 139.39 179.706 142.042C179.886 144.467 179.168 146.873 177.69 148.803C174.641 152.806 169.499 154.617 164.717 155.429C161.911 155.905 159.061 156.056 156.228 156.281C153.355 156.54 150.465 156.562 147.588 156.348C143.327 155.985 138.85 154.836 135.679 151.79C133.882 150.097 132.783 147.793 132.599 145.331C132.533 143.983 132.582 142.632 132.746 141.293C132.791 140.074 133.068 138.875 133.563 137.761C134.367 136.231 132.051 134.871 131.242 136.404H131.243Z" fill="#232323"/>
<path d="M159.945 146.73C160.098 146.802 160.247 146.881 160.392 146.969C159.365 145.776 159.021 144.232 159.809 143.247C160.093 142.933 160.44 142.683 160.828 142.513C161.215 142.343 161.635 142.258 162.058 142.263C163.158 142.342 165.387 142.655 166.358 143.156C165.115 142.492 164.374 140.739 165.175 139.579C165.493 139.117 166.929 138.41 168.288 138.606C169.608 138.793 170.872 139.267 171.991 139.993C174.105 141.205 176.055 142.683 177.792 144.391C179.403 146.015 180.795 147.297 180.968 149.579C181.134 150.852 180.803 152.139 180.044 153.174C179.674 153.527 179.345 153.92 179.063 154.346C178.553 155.346 179.119 156.546 179.051 157.666C178.969 159.057 177.931 160.18 176.948 161.165C174.944 163.171 172.882 165.158 170.458 166.628C170.264 166.747 170.066 166.861 169.867 166.972C169.948 167.182 170 167.317 170 167.317C170.421 168.115 171.249 169.643 171.275 171.008C170.992 172.09 170.53 173.117 169.909 174.047C168.798 175.889 167.575 177.661 166.245 179.352C165.079 180.675 163.452 181.907 161.703 181.682C160.123 181.479 159.071 180.298 158.391 178.857C156.983 175.872 156.442 173.565 155.777 170.303C155.672 169.507 155.643 168.704 155.692 167.903C155.741 166.335 157.281 163.244 158.468 162.215L159.033 161.567C158.18 160.235 157.376 158.868 156.544 157.465C155.972 156.289 155.279 154.692 155.376 153.897C155.422 153.163 155.718 152.468 156.216 151.928C156.473 151.669 156.812 151.507 157.175 151.47C157.538 151.433 157.902 151.525 158.205 151.728C157.515 151.195 156.996 150.471 156.712 149.645C156.471 148.813 156.376 147.741 157.015 147.16C157.387 146.775 157.877 146.524 158.407 146.446C158.936 146.368 159.477 146.468 159.945 146.73Z" fill="white"/>
<path d="M168.838 167.996C169.093 168.455 169.323 168.928 169.529 169.411C169.672 169.76 169.785 170.121 169.865 170.49C169.886 170.59 169.9 170.692 169.918 170.792C169.918 171.042 169.926 171.081 169.944 170.908C169.966 170.773 169.963 170.774 169.933 170.911C169.716 171.359 169.58 171.844 169.349 172.293C169.073 172.832 168.761 173.351 168.439 173.865C167.273 175.724 166.121 177.733 164.506 179.204C163.677 179.96 162.521 180.665 161.373 180.227C160.271 179.807 159.737 178.614 159.289 177.613C158.746 176.379 158.298 175.105 157.951 173.802C157.545 172.476 157.242 171.121 157.046 169.748C156.867 168.545 157.028 167.316 157.509 166.199C157.918 165.062 158.569 164.027 159.416 163.166C160.7 162.002 158.795 160.106 157.515 161.265C156.508 162.273 155.72 163.479 155.201 164.805C154.616 166.087 154.318 167.481 154.328 168.89C154.415 170.582 154.705 172.257 155.192 173.88C155.605 175.508 156.15 177.1 156.821 178.639C157.465 180.122 158.274 181.574 159.721 182.409C160.499 182.833 161.373 183.048 162.259 183.031C163.144 183.015 164.01 182.768 164.771 182.314C167.311 180.914 168.928 178.097 170.442 175.726C171.25 174.46 172.152 173.099 172.525 171.629C172.949 169.959 171.912 168.071 171.159 166.642C170.351 165.112 168.03 166.469 168.838 167.998L168.838 167.996Z" fill="#232323"/>
<path d="M164.285 169.431C165.973 169.678 167.697 169.463 169.272 168.808C171.144 167.909 172.883 166.753 174.437 165.375C176.111 164.03 177.649 162.523 179.028 160.877C179.719 160.078 180.177 159.105 180.353 158.063C180.412 157.51 180.395 156.951 180.301 156.402C180.201 155.993 180.168 155.57 180.204 155.15C180.283 154.786 180.611 154.556 180.852 154.29C181.23 153.881 181.542 153.414 181.775 152.908C182.199 151.931 182.388 150.868 182.328 149.804C182.232 147.744 181.278 146.095 179.896 144.617C178.447 143.052 176.84 141.64 175.101 140.403C173.456 139.242 171.668 138.04 169.699 137.521C167.861 137.036 165.192 137.124 164.016 138.902C162.782 140.769 163.899 143.284 165.682 144.318L167.038 141.997C166.022 141.545 164.943 141.252 163.838 141.128C162.718 140.964 161.611 140.775 160.521 141.197C159.915 141.395 159.372 141.749 158.946 142.225C158.521 142.7 158.229 143.279 158.1 143.904C157.844 145.409 158.512 146.784 159.444 147.92L161.072 145.809C160.119 145.196 158.966 144.975 157.854 145.193C157.372 145.311 156.919 145.524 156.522 145.821C156.124 146.118 155.791 146.492 155.542 146.921C154.506 148.92 155.724 151.348 157.258 152.682L158.887 150.571C157.501 149.607 155.662 150.282 154.777 151.582C154.376 152.22 154.134 152.946 154.071 153.697C154.008 154.448 154.126 155.204 154.416 155.9C155.012 157.427 155.759 158.89 156.647 160.268C157.549 161.765 158.486 163.238 159.512 164.654C159.699 164.954 159.993 165.171 160.335 165.261C160.677 165.35 161.041 165.306 161.351 165.136C161.656 164.954 161.878 164.659 161.969 164.315C162.059 163.971 162.01 163.605 161.833 163.297C160.279 161.204 158.885 158.998 157.661 156.698C157.283 155.965 156.721 154.822 156.714 154.106C156.714 153.773 156.983 152.513 157.53 152.893C158.775 153.759 160.31 151.784 159.159 150.783C158.526 150.233 157.618 149.256 157.883 148.301C158.112 147.476 159.192 147.84 159.715 148.133C161.112 148.917 162.282 147.165 161.344 146.022C160.996 145.598 160.54 144.834 160.766 144.259C160.886 144.063 161.053 143.9 161.253 143.786C161.453 143.671 161.679 143.61 161.909 143.607C162.547 143.612 163.181 143.687 163.802 143.831C164.155 143.894 164.506 143.966 164.852 144.055C165.135 144.121 165.412 144.209 165.681 144.318C167.22 145.065 168.553 142.877 167.037 141.997C166.822 141.882 166.635 141.72 166.49 141.523C166.345 141.327 166.245 141.1 166.197 140.861C166.171 140.705 166.185 140.546 166.24 140.398C166.24 140.402 166.072 140.592 166.271 140.37C166.169 140.482 166.503 140.236 166.58 140.202C167.715 139.666 169.026 140.017 170.113 140.514C173.27 142.052 176.072 144.229 178.345 146.905C178.82 147.41 179.18 148.012 179.401 148.669C179.622 149.327 179.698 150.024 179.625 150.713C179.576 151.328 179.341 151.914 178.953 152.393C178.249 153.216 177.646 153.842 177.533 154.972C177.541 155.762 177.601 156.551 177.714 157.333C177.695 158.045 177.412 158.726 176.919 159.241C175.746 160.587 174.471 161.839 173.103 162.987C171.659 164.296 170.05 165.41 168.316 166.302C167.009 166.952 165.773 166.895 164.285 166.746C163.929 166.749 163.588 166.891 163.337 167.142C163.086 167.394 162.943 167.734 162.941 168.09C162.948 168.444 163.092 168.781 163.343 169.032C163.593 169.282 163.931 169.426 164.285 169.434L164.285 169.431Z" fill="#232323"/>
<path d="M157.529 152.888C157.596 152.928 157.658 152.972 157.722 153.015C157.978 153.188 157.454 152.791 157.722 153.015C157.932 153.188 158.138 153.368 158.338 153.551C158.861 154.026 159.366 154.521 159.863 155.024C160.939 156.11 161.988 157.23 162.967 158.406C163.079 158.541 163.19 158.678 163.3 158.815C163.335 158.859 163.524 159.103 163.362 158.892C163.199 158.681 163.371 158.905 163.407 158.954C163.549 159.141 163.679 159.337 163.795 159.541C163.977 159.846 164.272 160.067 164.615 160.158C164.959 160.248 165.325 160.199 165.634 160.023C165.936 159.838 166.155 159.543 166.245 159.2C166.334 158.858 166.288 158.493 166.116 158.184C165.82 157.69 165.48 157.224 165.102 156.791C164.637 156.215 164.15 155.66 163.65 155.111C162.598 153.952 161.511 152.818 160.358 151.758C159.907 151.312 159.413 150.913 158.882 150.566C158.574 150.386 158.208 150.335 157.863 150.426C157.518 150.516 157.223 150.74 157.043 151.048C156.863 151.355 156.813 151.722 156.903 152.067C156.994 152.412 157.217 152.707 157.525 152.887L157.529 152.888Z" fill="#232323"/>
<path d="M159.819 148.208C161.779 149.366 163.714 150.592 165.563 151.92C165.636 151.972 165.708 152.024 165.779 152.078C165.947 152.203 165.533 151.873 165.835 152.124C166.007 152.267 166.181 152.407 166.35 152.552C166.735 152.882 167.11 153.224 167.478 153.57C168.271 154.318 169.037 155.096 169.756 155.915C169.88 156.041 170.028 156.142 170.192 156.211C170.355 156.28 170.531 156.316 170.708 156.316C170.886 156.317 171.061 156.283 171.225 156.215C171.389 156.147 171.538 156.048 171.664 155.923C171.789 155.797 171.889 155.648 171.956 155.484C172.024 155.32 172.058 155.144 172.057 154.967C172.057 154.79 172.021 154.614 171.952 154.451C171.883 154.287 171.783 154.139 171.656 154.014C170.269 152.397 168.708 150.937 167.003 149.659C165.138 148.298 163.163 147.061 161.175 145.888C159.682 145.006 158.328 147.328 159.818 148.208H159.819Z" fill="#232323"/>
<path d="M165.683 144.317C166.297 144.671 166.89 145.061 167.457 145.486C167.819 145.749 168.177 146.018 168.533 146.29C168.28 146.097 168.601 146.346 168.651 146.382L168.959 146.624C169.152 146.777 169.344 146.931 169.535 147.086C170.989 148.219 172.356 149.461 173.623 150.8C173.876 151.05 174.217 151.19 174.573 151.19C174.929 151.19 175.27 151.05 175.523 150.8C175.769 150.544 175.905 150.204 175.905 149.85C175.905 149.496 175.769 149.155 175.523 148.9C174.229 147.533 172.832 146.267 171.345 145.114C170.001 143.953 168.56 142.91 167.038 141.996C166.73 141.816 166.364 141.766 166.019 141.856C165.674 141.946 165.379 142.17 165.199 142.478C165.019 142.786 164.969 143.152 165.06 143.497C165.15 143.842 165.374 144.137 165.681 144.317H165.683Z" fill="#232323"/>
<path d="M119.158 94.5962C120.722 95.4063 122.465 95.8107 124.226 95.7721C126.053 95.8494 127.854 95.3176 129.347 94.2602C129.599 94.0082 129.74 93.6664 129.74 93.31C129.74 92.9535 129.599 92.6117 129.347 92.3597C129.09 92.1174 128.75 91.9824 128.396 91.9824C128.043 91.9824 127.703 92.1174 127.446 92.3597C127.855 92.0405 127.544 92.2796 127.439 92.3474C127.335 92.4151 127.233 92.4723 127.127 92.5283C127.071 92.5574 127.015 92.5842 126.959 92.6117C126.766 92.7108 126.933 92.5557 127.019 92.591C126.963 92.5674 126.656 92.7259 126.588 92.7478C126.194 92.8719 125.791 92.9641 125.382 93.0233C125.583 92.993 125.363 93.0233 125.276 93.0317C125.157 93.0434 125.039 93.0535 124.921 93.0613C124.635 93.0798 124.349 93.0871 124.063 93.0849C123.807 93.0849 123.551 93.0748 123.296 93.0574C123.179 93.0496 123.061 93.0401 122.944 93.0283C122.924 93.0283 122.501 92.9617 122.783 93.0109C122.403 92.9496 122.026 92.8662 121.656 92.7612C121.499 92.7136 121.345 92.657 121.189 92.6038C120.848 92.4874 121.395 92.7091 121.087 92.5641C120.893 92.4728 120.703 92.3782 120.514 92.2785C120.206 92.1017 119.841 92.0537 119.498 92.1449C119.156 92.2361 118.863 92.4592 118.684 92.7655C118.505 93.0718 118.454 93.4364 118.543 93.7799C118.632 94.1234 118.852 94.4178 119.157 94.599L119.158 94.5962Z" fill="#232323"/>
<path d="M123.537 82.6759C123.77 83.5157 123.957 84.3678 124.097 85.2282L124.049 84.8709C124.065 84.9878 124.068 85.1062 124.058 85.2237L124.106 84.8665C124.098 84.9204 124.085 84.9735 124.067 85.0249L124.203 84.7035C124.187 84.7391 124.168 84.7732 124.147 84.8054L124.356 84.5338C124.332 84.564 124.304 84.5914 124.273 84.6156L124.545 84.4056C124.48 84.4459 124.413 84.4816 124.343 84.5126L124.664 84.3771C124.555 84.4239 124.44 84.4573 124.323 84.4767L124.68 84.4286C124.574 84.4412 124.467 84.4412 124.36 84.4286L124.718 84.4767C124.597 84.4599 124.479 84.4303 124.358 84.414C124.185 84.3582 124 84.3501 123.822 84.3905C123.644 84.3981 123.472 84.453 123.322 84.5495C123.17 84.6386 123.036 84.7568 122.93 84.8974C122.823 85.038 122.745 85.1983 122.7 85.3691C122.655 85.5399 122.645 85.7178 122.669 85.8927C122.693 86.0676 122.751 86.2361 122.84 86.3884C122.925 86.5401 123.041 86.6728 123.179 86.7787C123.317 86.8846 123.475 86.9613 123.644 87.0044C123.924 87.0419 124.191 87.1125 124.473 87.1248C124.899 87.1273 125.32 87.0271 125.699 86.8325C125.94 86.7228 126.153 86.5608 126.323 86.3582C126.493 86.1557 126.616 85.9177 126.683 85.6616C126.77 85.2464 126.765 84.8173 126.67 84.4039C126.531 83.5819 126.341 82.7666 126.13 81.9603C126.083 81.7901 126.003 81.6308 125.895 81.4915C125.786 81.3522 125.651 81.2356 125.498 81.1485C125.344 81.0613 125.175 81.0052 125 80.9834C124.825 80.9616 124.647 80.9746 124.477 81.0215C124.306 81.0684 124.147 81.1484 124.008 81.2569C123.869 81.3653 123.752 81.5002 123.665 81.6537C123.578 81.8072 123.522 81.9764 123.5 82.1516C123.478 82.3268 123.491 82.5046 123.538 82.6748L123.537 82.6759Z" fill="#232323"/>
<path d="M110.069 75.4364C109.643 76.8217 109.92 80.009 112.545 80.2801C116.017 80.2593 116.199 76.4062 115.031 74.5948C114.075 73.1114 111.265 72.4943 110.069 75.4364Z" fill="#232323"/>
<path d="M137.85 75.4372C138.277 76.8225 137.999 80.0093 135.375 80.2803C131.906 80.2596 131.721 76.4065 132.888 74.595C133.844 73.1116 136.656 72.4951 137.85 75.4372Z" fill="#232323"/>
</g>
<defs>
<clipPath id="clip0_615_2243">
<rect width="164.794" height="180" fill="white" transform="translate(28 30)"/>
</clipPath>
</defs>
</svg>
