<svg width="220" height="220" viewBox="0 0 220 220" fill="none" xmlns="http://www.w3.org/2000/svg">
<g clip-path="url(#clip0_615_2522)">
<path d="M112.525 142.02C113.369 141.004 114.142 139.932 114.839 138.81C115.633 137.685 116.188 136.409 116.469 135.061C116.609 133.923 116.451 132.767 116.01 131.709C115.569 130.65 114.861 129.724 113.954 129.022C112.907 128.199 111.648 127.692 110.324 127.56C108.999 127.428 107.665 127.677 106.476 128.276C104.681 129.168 103.245 130.638 101.962 132.177C100.792 133.513 99.8163 135.008 99.0642 136.617C98.3115 138.235 98.0441 140.037 98.2943 141.804C98.3847 142.571 98.6286 143.311 99.0116 143.982C99.3945 144.653 99.9086 145.239 100.523 145.707C101.138 146.175 101.84 146.514 102.588 146.704C103.337 146.894 104.116 146.932 104.879 146.815C106.169 146.641 107.408 146.198 108.516 145.517C110.04 144.585 111.395 143.403 112.525 142.02Z" fill="white"/>
<path d="M113.323 142.821C114.841 141.098 116.097 139.16 117.048 137.069C117.442 136.139 117.642 135.137 117.635 134.126C117.628 133.116 117.415 132.117 117.007 131.192C116.153 129.31 114.616 127.823 112.706 127.032C110.796 126.242 108.657 126.208 106.723 126.936C104.81 127.766 103.121 129.034 101.79 130.638C100.33 132.189 99.1079 133.947 98.1641 135.856C97.1351 137.923 96.8259 140.274 97.2855 142.537C97.5007 143.49 97.9084 144.389 98.4837 145.179C99.0589 145.969 99.7896 146.633 100.631 147.13C105.218 149.673 110.367 146.292 113.323 142.821C113.528 142.605 113.643 142.318 113.643 142.02C113.643 141.721 113.528 141.434 113.323 141.218C113.109 141.008 112.821 140.89 112.521 140.89C112.221 140.89 111.933 141.008 111.719 141.218C109.684 143.609 106.453 146.367 103.045 145.627C102.319 145.472 101.643 145.142 101.074 144.666C100.505 144.19 100.06 143.582 99.7795 142.896C99.1695 141.291 99.1666 139.518 99.7715 137.911C100.38 136.252 101.282 134.716 102.435 133.377C103.449 132.019 104.665 130.824 106.04 129.834C107.352 128.894 108.978 128.5 110.575 128.736C112.114 128.992 113.488 129.847 114.398 131.115C114.886 131.809 115.202 132.61 115.318 133.45C115.434 134.291 115.348 135.148 115.066 135.948C114.703 136.854 114.237 137.716 113.678 138.516C113.082 139.456 112.428 140.359 111.719 141.218C111.514 141.434 111.399 141.721 111.399 142.02C111.399 142.318 111.514 142.605 111.719 142.821C111.933 143.032 112.221 143.149 112.521 143.149C112.821 143.149 113.109 143.032 113.323 142.821Z" fill="#232323"/>
<path d="M112.525 107.556C113.369 106.54 114.142 105.468 114.839 104.347C115.633 103.222 116.188 101.946 116.469 100.597C116.609 99.459 116.451 98.3037 116.01 97.2449C115.57 96.186 114.861 95.2601 113.954 94.5579C112.907 93.7357 111.648 93.2288 110.324 93.0968C108.999 92.9648 107.665 93.2131 106.476 93.8126C104.681 94.7039 103.245 96.1743 101.962 97.7132C100.792 99.0487 99.8165 100.543 99.0642 102.151C98.3115 103.769 98.0441 105.571 98.2943 107.338C98.3848 108.105 98.6289 108.845 99.0118 109.516C99.3948 110.186 99.9089 110.773 100.523 111.241C101.138 111.708 101.84 112.047 102.589 112.238C103.337 112.428 104.116 112.466 104.879 112.349C106.169 112.175 107.408 111.732 108.516 111.051C110.039 110.12 111.395 108.938 112.525 107.556Z" fill="white"/>
<path d="M112.525 126.45C113.369 125.435 114.142 124.363 114.839 123.242C115.633 122.117 116.188 120.84 116.469 119.492C116.609 118.354 116.451 117.198 116.01 116.14C115.569 115.081 114.861 114.155 113.954 113.452C112.907 112.63 111.648 112.124 110.324 111.992C108.999 111.86 107.665 112.108 106.476 112.708C104.681 113.599 103.245 115.069 101.962 116.608C100.792 117.944 99.8162 119.439 99.0642 121.048C98.3115 122.666 98.0441 124.468 98.2943 126.235C98.3847 127.002 98.6287 127.742 99.0116 128.413C99.3945 129.084 99.9086 129.67 100.523 130.138C101.138 130.606 101.84 130.945 102.588 131.135C103.337 131.325 104.116 131.363 104.879 131.246C106.169 131.071 107.408 130.629 108.516 129.948C110.04 129.016 111.395 127.834 112.525 126.45Z" fill="white"/>
<path d="M102.486 71.9203C101.642 72.9355 100.868 74.0077 100.172 75.1294C99.3774 76.2545 98.8228 77.5307 98.542 78.8789C98.4015 80.0172 98.5594 81.1725 99.0003 82.2313C99.4412 83.2902 100.15 84.2161 101.057 84.9183C102.104 85.7409 103.363 86.2479 104.688 86.3798C106.013 86.5117 107.348 86.2631 108.536 85.6632C110.331 84.7719 113.965 81.4012 115.247 79.8628C116.532 78.2274 117.673 76.4846 118.659 74.6537C119.468 72.9674 119.722 71.0676 119.383 69.2279C119.256 68.3847 118.94 67.5811 118.458 66.8776C117.976 66.174 117.341 65.5888 116.601 65.1657C115.456 64.5349 114.14 64.2866 112.844 64.4572C111.554 64.6314 110.315 65.0735 109.207 65.7552C107.668 66.6631 103.641 70.5505 102.486 71.9203Z" fill="white"/>
<path d="M28.9197 173.408C25.4617 166.278 27.3459 157.537 26.9831 149.403C26.4579 137.647 25.618 126.94 23.4651 109.201C23.0348 105.655 22.749 102.105 24.4098 98.9432C26.0705 95.7813 29.7775 94.5735 33.2266 95.5031C36.344 96.343 38.2126 98.2838 39.3982 101.287L96.8628 162.181C89.1646 169.756 80.5938 176.389 71.3307 181.942L28.9197 173.408Z" fill="white"/>
<path d="M71.9059 182.921C79.1925 178.555 86.0537 173.516 92.3996 167.869C94.1923 166.28 95.9481 164.651 97.6671 162.982C98.7181 161.966 97.114 160.364 96.064 161.379C90.148 167.162 83.7348 172.414 76.8986 177.073C74.8899 178.427 72.8441 179.724 70.7614 180.963C69.5097 181.71 70.6485 183.671 71.9059 182.921Z" fill="#232323"/>
<path d="M40.4922 100.985C39.3722 98.1982 37.5716 95.9631 34.7352 94.8148C31.9885 93.7029 28.6656 93.7818 26.1409 95.4289C23.1986 97.3508 22.1099 100.876 22.0083 104.239C21.9987 106.056 22.1258 107.871 22.3886 109.668C22.6172 111.562 22.8403 113.457 23.0579 115.352C23.7815 121.677 24.4305 128.011 24.9317 134.358C25.361 139.797 25.7937 145.273 25.8886 150.73C26.0081 157.615 24.7224 164.841 26.941 171.524C27.2223 172.363 27.5559 173.183 27.94 173.98C28.0935 174.238 28.3421 174.425 28.6321 174.501C28.9222 174.577 29.2306 174.536 29.4907 174.387C29.7455 174.231 29.9301 173.983 30.0059 173.694C30.0817 173.405 30.0429 173.097 29.8974 172.836C27.0492 166.876 28.0104 159.886 28.145 153.51C28.2584 148.126 27.8073 142.698 27.4223 137.328C27.0171 131.67 26.4871 126.022 25.8834 120.381C25.5084 116.886 25.1085 113.392 24.6837 109.901C24.2893 106.63 23.7447 102.998 25.1995 99.8963C25.8181 98.6128 26.8502 97.5745 28.1299 96.9481C29.4096 96.3218 30.8628 96.1437 32.2559 96.4425C33.6162 96.6686 34.8925 97.2502 35.9557 98.1283C37.0014 99.0797 37.8068 100.265 38.3061 101.588C38.3938 101.873 38.5869 102.113 38.8461 102.261C39.1053 102.408 39.4109 102.451 39.7005 102.38C39.9893 102.298 40.2343 102.106 40.3825 101.845C40.5307 101.584 40.5701 101.275 40.4922 100.985Z" fill="#232323"/>
<path d="M113.323 108.357C114.841 106.634 116.097 104.695 117.048 102.605C117.443 101.674 117.642 100.673 117.635 99.6619C117.628 98.6511 117.415 97.6525 117.007 96.7274C116.153 94.8451 114.616 93.358 112.706 92.5676C110.796 91.7772 108.657 91.7427 106.723 92.4711C104.81 93.3009 103.121 94.5694 101.79 96.1738C100.33 97.7241 99.108 99.4824 98.1642 101.391C97.1351 103.459 96.8259 105.81 97.2856 108.073C97.5008 109.026 97.9086 109.925 98.4838 110.715C99.0591 111.504 99.7897 112.168 100.631 112.665C105.218 115.209 110.367 111.827 113.323 108.357C113.529 108.14 113.644 107.853 113.644 107.554C113.644 107.255 113.529 106.967 113.323 106.751C113.109 106.541 112.821 106.423 112.521 106.423C112.221 106.423 111.933 106.541 111.72 106.751C109.684 109.143 106.453 111.9 103.045 111.16C102.32 111.005 101.643 110.675 101.074 110.199C100.505 109.723 100.061 109.116 99.7796 108.429C99.1695 106.824 99.1667 105.052 99.7715 103.445C100.38 101.786 101.282 100.25 102.435 98.9101C103.449 97.5521 104.665 96.3574 106.041 95.3675C107.352 94.4273 108.978 94.0335 110.575 94.2693C112.114 94.5257 113.488 95.381 114.398 96.648C114.886 97.3421 115.202 98.1431 115.318 98.984C115.435 99.8249 115.348 100.681 115.066 101.482C114.703 102.388 114.237 103.249 113.678 104.049C113.082 104.99 112.428 105.892 111.72 106.751C111.514 106.968 111.398 107.255 111.398 107.554C111.398 107.853 111.513 108.14 111.719 108.357C111.933 108.567 112.221 108.685 112.521 108.685C112.821 108.685 113.109 108.567 113.323 108.357Z" fill="#232323"/>
<path d="M113.323 127.25C114.842 125.528 116.097 123.589 117.048 121.499C117.443 120.568 117.642 119.567 117.635 118.556C117.628 117.545 117.415 116.547 117.007 115.622C116.154 113.739 114.616 112.252 112.706 111.462C110.796 110.671 108.657 110.637 106.723 111.365C104.811 112.195 103.121 113.464 101.79 115.068C100.33 116.618 99.1081 118.376 98.1641 120.285C97.1351 122.352 96.8259 124.704 97.2855 126.967C97.5008 127.92 97.9086 128.819 98.4838 129.609C99.059 130.398 99.7896 131.062 100.631 131.559C105.218 134.102 110.367 130.722 113.323 127.25C113.528 127.034 113.643 126.747 113.643 126.449C113.643 126.15 113.528 125.863 113.323 125.647C113.109 125.437 112.821 125.319 112.521 125.319C112.221 125.319 111.933 125.437 111.719 125.647C109.684 128.038 106.453 130.793 103.045 130.057C102.319 129.901 101.643 129.571 101.074 129.095C100.505 128.619 100.06 128.012 99.7795 127.325C99.1695 125.72 99.1666 123.948 99.7715 122.341C100.38 120.681 101.283 119.144 102.437 117.803C103.451 116.446 104.667 115.253 106.043 114.264C107.355 113.323 108.981 112.93 110.577 113.165C112.116 113.422 113.49 114.277 114.4 115.544C114.889 116.238 115.204 117.039 115.321 117.88C115.437 118.721 115.35 119.577 115.068 120.378C114.705 121.284 114.24 122.145 113.681 122.945C113.084 123.886 112.43 124.788 111.721 125.647C111.516 125.864 111.402 126.151 111.402 126.449C111.402 126.747 111.516 127.034 111.721 127.25C111.935 127.46 112.223 127.578 112.522 127.578C112.821 127.578 113.109 127.46 113.323 127.25Z" fill="#232323"/>
<path d="M101.684 71.1186C100.735 72.2608 99.8665 73.4681 99.0859 74.7316C98.2941 75.8939 97.7388 77.2007 97.4516 78.5774C97.2658 79.8231 97.3878 81.0953 97.8072 82.2829C98.2266 83.4705 98.9304 84.5373 99.8573 85.3901C100.857 86.2937 102.062 86.9404 103.368 87.2742C104.673 87.608 106.041 87.6189 107.352 87.3059C109.438 86.7863 111.119 85.3565 112.701 83.9707C114.24 82.6724 115.636 81.2134 116.866 79.6185C117.617 78.5913 118.314 77.5256 118.955 76.4259C119.645 75.3676 120.147 74.1978 120.439 72.9683C120.916 70.5225 120.652 67.8037 119.061 65.8038C117.353 63.6574 114.557 62.9381 111.935 63.4581C109.538 63.9333 107.679 65.3569 105.906 66.9417C104.406 68.237 102.995 69.6326 101.684 71.1186C101.478 71.3348 101.363 71.6218 101.363 71.9202C101.363 72.2186 101.478 72.5056 101.684 72.7217C101.898 72.932 102.186 73.0499 102.485 73.0499C102.785 73.0499 103.073 72.932 103.287 72.7217C104.28 71.5955 105.335 70.526 106.447 69.5183C107.075 68.9302 107.711 68.3516 108.368 67.7961C108.794 67.4065 109.255 67.057 109.745 66.7522C111.584 65.63 114.043 65.0046 116.027 66.1434C117.76 67.1353 118.389 68.9652 118.383 70.8763C118.407 71.896 118.208 72.9087 117.8 73.8436C117.3 74.8356 116.736 75.7945 116.114 76.7145C115.159 78.213 114.033 79.5957 112.76 80.8348C111.512 82.1065 110.144 83.2561 108.677 84.2678C107.874 84.8061 106.952 85.1396 105.99 85.239C105.028 85.3383 104.057 85.2006 103.161 84.8379C102.136 84.4293 101.254 83.7287 100.625 82.8232C99.9949 81.9178 99.6449 80.8472 99.6183 79.7446C99.615 78.4622 100.185 77.3059 100.831 76.2289C101.558 74.9973 102.381 73.8247 103.292 72.7217C103.497 72.5053 103.612 72.2184 103.612 71.9202C103.612 71.6219 103.497 71.3351 103.292 71.1186C103.078 70.9066 102.789 70.7877 102.488 70.7877C102.187 70.7877 101.898 70.9066 101.684 71.1186Z" fill="#232323"/>
<path d="M99.1963 42.1365H47.1623C41.8173 42.1365 37.4844 46.4694 37.4844 51.8144V158.694C37.4844 164.039 41.8173 168.372 47.1623 168.372H99.1963C104.541 168.372 108.874 164.039 108.874 158.694V51.8144C108.874 46.4694 104.541 42.1365 99.1963 42.1365Z" fill="#E3E7E7"/>
<path d="M68.5011 50.1445C71.6186 50.1445 74.7361 50.143 77.8535 50.1398C79.3121 50.1398 79.3145 47.8726 77.8535 47.8726C74.7361 47.8726 71.6186 47.8741 68.5011 47.8773C67.0425 47.8773 67.0401 50.1445 68.5011 50.1445Z" fill="#232323"/>
<path d="M106.857 55.0203L37.6898 55.025H37.4844C37.4844 70.5789 37.4844 138.034 37.4844 154.874C37.6195 154.874 37.6917 154.874 37.6917 154.874L108.804 154.868H108.873C108.873 138.021 108.873 70.5652 108.873 55.0222H106.857V55.0203Z" fill="white"/>
<path d="M99.1949 167.238H51.9944C50.4168 167.238 48.8387 167.243 47.261 167.238C44.9847 167.241 42.7994 166.344 41.1802 164.744C39.5611 163.145 38.6389 160.97 38.6143 158.694C38.6095 158.055 38.6143 157.416 38.6143 156.777V52.624C38.6143 52.3679 38.6143 52.1115 38.6143 51.8554C38.6064 50.729 38.8219 49.6121 39.2482 48.5693C39.6745 47.5266 40.3033 46.5787 41.0981 45.7804C41.8929 44.9821 42.8381 44.3492 43.879 43.9183C44.9198 43.4875 46.0358 43.2671 47.1623 43.2701C47.5081 43.2673 47.8543 43.2701 48.2015 43.2701H97.6178C98.1152 43.2701 98.613 43.2701 99.1104 43.2701C101.063 43.2573 102.963 43.9055 104.501 45.1094C106.76 46.909 107.739 49.5325 107.739 52.3472V156.289C107.739 157.08 107.744 157.871 107.739 158.661C107.724 160.925 106.82 163.093 105.222 164.698C103.624 166.302 101.459 167.214 99.1949 167.238C97.7368 167.251 97.733 169.519 99.1949 169.505C102.053 169.472 104.785 168.322 106.805 166.3C108.826 164.279 109.975 161.547 110.006 158.689C110.012 157.969 110.006 157.249 110.006 156.53V52.2154C110.047 50.5092 109.692 48.8168 108.97 47.2704C108.248 45.724 107.179 44.3654 105.845 43.3008C103.928 41.8137 101.572 41.0054 99.1463 41.0028C98.6829 41 98.2191 41.0028 97.7557 41.0028H48.0872C47.662 41.0028 47.2322 40.9934 46.8057 41.009C45.3223 41.0608 43.8652 41.4165 42.5247 42.0538C41.1842 42.6912 39.9886 43.5967 39.012 44.7145C37.1117 46.9294 36.3498 49.6071 36.3498 52.4723V157.008C36.3168 157.979 36.3427 158.952 36.4273 159.92C36.7547 162.557 38.0312 164.984 40.0182 166.748C42.0052 168.512 44.5666 169.493 47.2237 169.505C48.7636 169.514 50.3039 169.505 51.8437 169.505H99.1949C100.654 169.505 100.656 167.238 99.1949 167.238Z" fill="#232323"/>
<path d="M37.6886 156.005H45.1554H61.9166H82.0333H99.5649C102.566 156.005 105.571 156.053 108.572 156.005C108.648 156.005 108.725 156.005 108.801 156.005C110.26 156.005 110.263 153.738 108.801 153.738H101.269H84.4735H64.3549H46.8535C43.873 153.738 40.8887 153.691 37.9087 153.738C37.8355 153.738 37.7623 153.738 37.6886 153.738C36.23 153.738 36.2276 156.005 37.6886 156.005Z" fill="#232323"/>
<path d="M37.6886 56.1586H45.1554H61.9166H82.0333H99.5649C102.566 56.1586 105.571 56.2058 108.572 56.1586C108.648 56.1586 108.725 56.1586 108.801 56.1586C110.26 56.1586 110.263 53.8914 108.801 53.8914H101.269H84.4735H64.3549H46.8535C43.873 53.8914 40.8887 53.8441 37.9087 53.8914C37.8355 53.8914 37.7623 53.8914 37.6886 53.8914C36.23 53.8914 36.2276 56.1586 37.6886 56.1586Z" fill="#232323"/>
<path d="M73.2371 82.1204C68.2093 82.0791 63.3025 83.6624 59.2471 86.6346C55.4432 89.5082 52.6365 93.5027 51.2225 98.0555C48.4356 107.014 51.128 117.774 58.6492 123.619C66.124 129.429 77.4868 130.003 85.6385 125.238C93.8729 120.425 97.3966 110.481 96.0041 101.309C95.2839 96.6135 93.1142 92.261 89.7985 88.8598C86.3869 85.4144 81.9558 83.1601 77.1623 82.4312C75.8633 82.2309 74.5513 82.127 73.2371 82.1204C71.778 82.1152 71.7761 84.3825 73.2371 84.3877C77.8011 84.3567 82.2547 85.7908 85.9432 88.4791C89.3225 91.0304 91.8134 94.5803 93.0628 98.6261C95.5663 106.666 93.3599 116.362 86.7386 121.744C83.5479 124.338 79.4078 125.738 75.2984 126.042C70.9283 126.367 66.4547 125.652 62.5923 123.52C59.0181 121.535 56.1684 118.464 54.4557 114.751C52.6118 110.692 51.9945 106.182 52.6797 101.776C53.3292 97.5274 55.2794 93.5847 58.2618 90.4904C61.382 87.341 65.4376 85.286 69.8225 84.6324C70.9529 84.4645 72.0943 84.3827 73.2371 84.3877C74.6957 84.3825 74.6985 82.1152 73.2371 82.1204Z" fill="#E3E7E7"/>
<path d="M153.7 209.863C145.642 209.171 135.613 207.04 128.524 202.285C125.557 200.295 118.889 192.912 111.496 185.733C109.236 183.538 108.018 180.986 108.898 177.96C109.151 177.103 109.618 176.325 110.255 175.698C110.892 175.071 111.678 174.617 112.539 174.378C113.892 173.979 115.287 173.743 116.695 173.672L116.974 173.649C110.96 165.734 101.85 153.73 95.7054 145.746C93.4853 142.86 91.7495 136.881 95.7398 133.81C99.6131 130.829 103.554 133.089 106.429 136.278C110.997 141.345 120.977 153.506 125.697 158.678C125.445 155.779 126.977 152.976 130.598 151.693C133.427 150.691 136.515 151.559 137.805 154.069C137.004 151.467 138.446 148.253 141.543 146.811C144.64 145.37 148.436 145.707 150.052 148.37C149.756 145.86 152.03 143.888 154.262 143.091C156.663 142.234 160.275 142.989 162.912 146.133C168.038 152.247 172.191 158.689 175.797 164.256C181.064 172.388 184.643 178.524 186.553 181.98L153.7 209.863Z" fill="white"/>
<path d="M62.6897 107.817C64.7761 109.905 66.8204 112.036 68.9058 114.126C69.4529 114.656 70.1848 114.953 70.9465 114.953C71.7083 114.953 72.4402 114.656 72.9873 114.126C77.2894 109.904 81.5509 105.641 85.7718 101.337C86.3131 100.796 86.6171 100.062 86.6171 99.2962C86.6171 98.5308 86.3131 97.7967 85.7718 97.2555C85.2306 96.7142 84.4965 96.4102 83.731 96.4102C82.9656 96.4102 82.2315 96.7142 81.6903 97.2555C77.4779 101.567 73.2162 105.83 68.9053 110.044H72.9868C70.9014 107.955 68.8571 105.824 66.7708 103.735C66.2295 103.193 65.4953 102.889 64.7298 102.889C63.9644 102.889 63.2302 103.194 62.689 103.735C62.1478 104.276 61.8437 105.01 61.8438 105.776C61.8438 106.541 62.1484 107.275 62.6897 107.817Z" fill="#54D061"/>
<path d="M123.418 180.259C120.475 176.43 117.566 172.575 114.645 168.73C110.302 163.014 105.953 157.301 101.598 151.592C100.577 150.256 99.5545 148.92 98.5308 147.585C97.595 146.471 96.7313 145.298 95.9447 144.073C94.5668 141.702 93.745 138.354 95.3103 135.902C95.7918 135.171 96.4491 134.573 97.2219 134.162C97.9947 133.752 98.8583 133.542 99.7334 133.552C101.593 133.617 103.276 134.789 104.585 136.018C105.618 137.04 106.599 138.113 107.524 139.234C108.539 140.401 109.547 141.574 110.547 142.753C114.913 147.876 119.198 153.071 123.661 158.11C124.067 158.569 124.477 159.025 124.889 159.48C125.873 160.561 127.473 158.954 126.492 157.877C121.96 152.902 117.696 147.68 113.341 142.551C111.368 140.228 109.4 137.897 107.362 135.631C104.539 132.489 100.314 129.902 96.145 132.185C94.4428 133.094 93.1612 134.63 92.5717 136.468C92.1093 138.12 92.0911 139.865 92.5188 141.526C92.8728 143.078 93.5098 144.551 94.3978 145.872C95.2829 147.171 96.3117 148.389 97.2677 149.637C101.758 155.496 106.233 161.368 110.693 167.25C114.07 171.694 117.448 176.136 120.826 180.578C121.038 180.854 121.249 181.129 121.46 181.405C121.618 181.657 121.867 181.839 122.155 181.915C122.443 181.991 122.749 181.953 123.011 181.811C123.269 181.658 123.456 181.41 123.533 181.119C123.609 180.829 123.567 180.521 123.418 180.261V180.259Z" fill="#232323"/>
<path d="M153.7 208.73C149.262 208.363 144.869 207.574 140.581 206.374C136.443 205.193 132.261 203.587 128.743 201.06C128.676 201.017 128.613 200.969 128.554 200.914C128.431 200.814 128.306 200.715 128.184 200.613C127.91 200.385 127.641 200.15 127.375 199.913C126.737 199.343 126.115 198.755 125.501 198.161C123.936 196.65 122.411 195.098 120.886 193.547C119.066 191.696 117.249 189.84 115.412 188.005C114.436 187.029 113.453 186.058 112.464 185.094C111.657 184.351 110.969 183.488 110.427 182.535C109.449 180.711 109.435 178.159 110.946 176.605C112.363 175.149 114.692 174.968 116.692 174.806C116.991 174.799 117.275 174.677 117.486 174.466C117.697 174.255 117.819 173.971 117.826 173.672C117.824 173.372 117.704 173.085 117.492 172.873C117.279 172.661 116.992 172.541 116.692 172.539C114.612 172.707 112.2 172.917 110.418 174.12C109.455 174.789 108.679 175.694 108.165 176.749C107.65 177.803 107.414 178.971 107.479 180.143C107.574 182.584 108.864 184.705 110.553 186.397C112.599 188.447 114.674 190.467 116.707 192.53C119.824 195.695 122.859 199.016 126.231 201.92C129.512 204.746 133.678 206.53 137.752 207.876C142.93 209.53 148.282 210.577 153.701 210.997C154.001 210.995 154.288 210.875 154.5 210.663C154.712 210.45 154.832 210.163 154.834 209.864C154.828 209.565 154.707 209.28 154.496 209.069C154.284 208.857 153.999 208.736 153.701 208.73H153.7Z" fill="#232323"/>
<path d="M126.829 158.678C126.635 156.153 127.977 154.103 130.293 153.03C132.577 151.97 135.54 152.242 136.823 154.641C137.43 155.774 139.254 154.999 138.895 153.767C138.169 151.277 139.874 148.781 142.192 147.754C144.381 146.785 147.638 146.668 149.071 148.943C149.624 149.821 151.296 149.557 151.184 148.37C151.021 146.664 152.219 145.401 153.626 144.618C154.802 143.933 156.194 143.722 157.52 144.027C159.264 144.439 160.828 145.406 161.978 146.782C163.506 148.53 164.914 150.397 166.293 152.264C168.901 155.795 171.328 159.453 173.717 163.133C176.073 166.763 178.399 170.41 180.646 174.108C182.338 176.895 183.995 179.701 185.572 182.552C186.28 183.827 188.237 182.687 187.53 181.408C183.875 174.799 179.838 168.404 175.728 162.071C173.161 158.115 170.551 154.186 167.723 150.41C166.974 149.409 166.21 148.418 165.431 147.438C164.691 146.448 163.894 145.502 163.044 144.604C161.645 143.179 159.855 142.201 157.899 141.795C155.934 141.405 153.894 141.774 152.19 142.829C150.274 144.003 148.692 146.012 148.916 148.369L151.029 147.797C148.925 144.456 144.525 144.273 141.207 145.725C137.947 147.149 135.672 150.809 136.709 154.369L138.781 153.495C136.964 150.097 132.782 149.499 129.488 150.92C126.373 152.263 124.298 155.231 124.562 158.676C124.569 158.975 124.69 159.259 124.902 159.47C125.113 159.681 125.397 159.803 125.695 159.81C125.995 159.808 126.282 159.688 126.494 159.475C126.706 159.263 126.827 158.976 126.829 158.676V158.678Z" fill="#232323"/>
</g>
<defs>
<clipPath id="clip0_615_2522">
<rect width="165.68" height="170" fill="white" transform="translate(22 41)"/>
</clipPath>
</defs>
</svg>
