<svg width="220" height="220" viewBox="0 0 220 220" fill="none" xmlns="http://www.w3.org/2000/svg">
<g clip-path="url(#clip0_615_2500)">
<path d="M110.002 31.874C63.831 31.874 31.9141 67.6383 31.9141 109.479C31.9141 156.299 64.5142 188.54 110.002 188.54C157.245 188.54 188.09 155.997 188.09 109.479C188.093 67.3494 156.011 31.874 110.002 31.874Z" fill="#FF5890"/>
<path d="M110.003 30C92.6078 30.0281 75.2988 35.2061 61.3452 45.7316C48.2056 55.6887 38.5233 69.5194 33.6638 85.273C28.6365 101.534 28.8911 119.57 33.763 135.841C38.2166 151.049 47.3262 164.478 59.81 174.239C72.732 184.201 88.6901 189.397 104.897 190.277C121.475 191.178 138.573 187.949 153.005 179.532C166.244 171.745 176.663 159.949 182.756 145.85C189.375 130.322 191.523 113.254 188.958 96.5708C186.458 80.2865 178.942 65.1874 167.456 53.3764C155.544 41.3577 140.065 33.5148 123.328 31.019C118.918 30.3491 114.464 30.0085 110.003 30C107.591 30 107.587 33.7482 110.003 33.7482C126.686 33.7748 143.096 38.7334 156.52 48.7505C168.978 58.1704 178.15 71.2774 182.731 86.2085C187.495 101.632 187.311 118.615 182.972 134.118C178.989 148.352 171.025 161.208 159.503 170.539C147.64 180.144 132.55 185.262 117.369 186.395C101.415 187.587 85.0629 184.888 70.975 177.103C57.911 169.834 47.4931 158.605 41.2235 145.033C37.9157 137.808 35.6966 130.133 34.6383 122.258C33.4542 114.084 33.4642 105.782 34.668 97.6109C37.0126 82.0361 44.1374 67.5742 55.0576 56.2243C66.4496 44.6593 81.2856 37.1014 97.3383 34.6853C101.53 34.0508 105.764 33.7376 110.003 33.7482C112.414 33.7482 112.419 30 110.003 30Z" fill="#232323"/>
<path d="M110.002 46.7109C72.5737 46.7109 46.7031 75.6995 46.7031 109.621C46.7031 147.572 73.1305 173.71 110.004 173.71C148.299 173.71 173.305 147.33 173.305 109.621C173.305 75.4653 147.298 46.7109 110.002 46.7109Z" fill="white"/>
<path d="M110.004 44.8367C95.8223 44.8617 81.6946 49.0784 70.3289 57.6743C59.672 65.7594 51.8055 76.9703 47.8279 89.742C43.8069 103.121 43.7862 117.385 47.7685 130.776C51.3418 143.23 58.7435 154.243 68.9249 162.256C79.473 170.421 92.4505 174.715 105.704 175.461C119.184 176.219 133.096 173.617 144.856 166.817C155.679 160.508 164.213 150.916 169.22 139.432C174.682 126.713 176.459 112.714 174.345 99.0337C172.304 85.8084 166.201 73.5451 156.881 63.9425C147.192 54.1386 134.591 47.7326 120.96 45.6816C117.334 45.1278 113.672 44.8454 110.004 44.8367C107.592 44.832 107.588 48.5802 110.004 48.5849C123.49 48.4829 136.65 52.7303 147.532 60.6971C157.533 68.2663 164.901 78.7877 168.594 90.7735C172.454 103.213 172.32 116.898 168.837 129.413C165.735 140.977 159.097 151.282 149.851 158.889C140.299 166.613 128.105 170.726 115.877 171.623C103.018 172.567 89.8478 170.391 78.4985 164.104C67.9425 158.217 59.5353 149.122 54.4958 138.136C49.122 126.223 47.3098 113.009 49.278 100.089C51.1644 87.5158 56.914 75.8398 65.7303 66.6787C74.933 57.3484 86.916 51.2579 99.8774 49.3228C103.229 48.82 106.615 48.5723 110.004 48.5818C112.415 48.5771 112.42 44.8289 110.004 44.8367Z" fill="#232323"/>
<path d="M110.037 112.102H131.66C134.072 112.102 134.077 108.354 131.66 108.354H110.037C107.625 108.354 107.621 112.102 110.037 112.102Z" fill="#232323"/>
<path d="M108.164 77.4502C108.164 86.5266 108.164 95.6033 108.164 104.68C108.164 106.517 108.164 108.354 108.164 110.19C108.164 112.602 111.916 112.605 111.912 110.19C111.898 101.249 111.898 92.307 111.912 83.3654C111.912 81.3934 111.912 79.4217 111.912 77.4502C111.912 75.0381 108.164 75.0342 108.164 77.4502Z" fill="#232323"/>
<path d="M108.079 58.9222C108.079 60.0505 108.087 61.1789 108.088 62.3065C108.093 62.8028 108.289 63.2781 108.635 63.634C108.986 63.9854 109.463 64.1829 109.96 64.1829C110.457 64.1829 110.934 63.9854 111.285 63.634C111.629 63.277 111.825 62.8024 111.832 62.3065C111.832 61.1789 111.823 60.0505 111.822 58.9222C111.817 58.4259 111.622 57.9506 111.276 57.5947C111.102 57.4205 110.895 57.2824 110.668 57.1882C110.44 57.0939 110.196 57.0454 109.95 57.0454C109.704 57.0454 109.46 57.0939 109.233 57.1882C109.005 57.2824 108.799 57.4205 108.625 57.5947C108.28 57.9514 108.085 58.4262 108.079 58.9222Z" fill="#232323"/>
<path d="M108.079 158.108C108.079 159.237 108.087 160.365 108.088 161.493C108.093 161.989 108.289 162.464 108.635 162.82C108.986 163.171 109.463 163.369 109.96 163.369C110.457 163.369 110.934 163.171 111.285 162.82C111.629 162.463 111.825 161.988 111.832 161.493C111.832 160.365 111.823 159.237 111.822 158.108C111.817 157.612 111.622 157.137 111.276 156.781C111.102 156.607 110.895 156.468 110.668 156.374C110.44 156.28 110.196 156.231 109.95 156.231C109.704 156.231 109.46 156.28 109.233 156.374C109.005 156.468 108.799 156.607 108.625 156.781C108.28 157.137 108.085 157.612 108.079 158.108Z" fill="#232323"/>
<path d="M161.245 108.329C160.117 108.329 158.989 108.338 157.861 108.338C157.364 108.343 156.889 108.538 156.533 108.885C156.182 109.236 155.984 109.713 155.984 110.21C155.984 110.707 156.182 111.183 156.533 111.535C156.89 111.88 157.365 112.075 157.861 112.082C158.989 112.082 160.117 112.073 161.245 112.073C161.741 112.068 162.216 111.872 162.573 111.526C162.747 111.352 162.886 111.145 162.981 110.918C163.075 110.69 163.124 110.445 163.124 110.199C163.124 109.952 163.075 109.708 162.981 109.48C162.886 109.252 162.747 109.045 162.573 108.871C162.216 108.526 161.741 108.331 161.245 108.325V108.329Z" fill="#232323"/>
<path d="M62.0576 108.329C60.93 108.329 59.8016 108.338 58.6732 108.338C58.1769 108.343 57.7015 108.538 57.3457 108.885C56.9943 109.236 56.7969 109.713 56.7969 110.21C56.7969 110.707 56.9943 111.183 57.3457 111.535C57.7025 111.88 58.1773 112.075 58.6732 112.082C59.8016 112.082 60.93 112.073 62.0576 112.073C62.5538 112.068 63.0289 111.872 63.3851 111.526C63.5598 111.352 63.6984 111.145 63.793 110.918C63.8876 110.69 63.9363 110.445 63.9363 110.199C63.9363 109.952 63.8876 109.708 63.793 109.48C63.6984 109.252 63.5598 109.045 63.3851 108.871C63.0287 108.526 62.5537 108.331 62.0576 108.325V108.329Z" fill="#232323"/>
<path d="M82.6943 66.7411C83.2581 67.718 83.8297 68.6933 84.3943 69.6679C84.5185 69.8804 84.6834 70.0665 84.8795 70.2153C85.0756 70.3642 85.2991 70.4729 85.5372 70.5353C85.7754 70.5978 86.0235 70.6127 86.2674 70.5792C86.5113 70.5457 86.7462 70.4645 86.9587 70.3402C87.379 70.0919 87.6868 69.6906 87.8177 69.2204C87.9423 68.7328 87.8749 68.216 87.6295 67.7766C87.0649 66.7989 86.4933 65.8244 85.9287 64.8491C85.6779 64.42 85.2669 64.1081 84.7862 63.982C84.3054 63.8559 83.7942 63.9259 83.3651 64.1767C82.9449 64.4254 82.6371 64.8269 82.5061 65.2973C82.3819 65.785 82.4495 66.3018 82.6951 66.7411H82.6943Z" fill="#232323"/>
<path d="M132.289 152.639C132.853 153.616 133.424 154.591 133.989 155.565C134.241 155.983 134.64 156.289 135.109 156.424C135.596 156.554 136.115 156.486 136.552 156.235C136.973 155.987 137.281 155.586 137.411 155.116C137.536 154.628 137.469 154.111 137.222 153.671C136.659 152.694 136.087 151.719 135.522 150.744C135.271 150.327 134.871 150.02 134.403 149.885C133.915 149.756 133.396 149.824 132.959 150.074C132.539 150.323 132.231 150.725 132.1 151.195C131.976 151.683 132.043 152.199 132.289 152.639Z" fill="#232323"/>
<path d="M153.42 82.9437C152.443 83.5075 151.468 84.0791 150.494 84.6437C150.077 84.8958 149.77 85.2955 149.635 85.7634C149.505 86.2511 149.573 86.7702 149.824 87.2081C150.072 87.6278 150.474 87.9355 150.943 88.067C151.431 88.191 151.948 88.1234 152.388 87.8781C153.365 87.3135 154.34 86.7419 155.315 86.1781C155.732 85.9261 156.039 85.5259 156.174 85.0575C156.303 84.5701 156.235 84.0513 155.985 83.6137C155.737 83.1933 155.335 82.8855 154.865 82.7547C154.377 82.6304 153.86 82.698 153.42 82.9437Z" fill="#232323"/>
<path d="M67.5295 132.536C66.5526 133.1 65.5773 133.671 64.6028 134.236C64.186 134.488 63.8794 134.888 63.7438 135.356C63.6145 135.843 63.6824 136.362 63.9328 136.8C64.1815 137.22 64.583 137.528 65.0534 137.659C65.541 137.784 66.0578 137.717 66.4972 137.471C67.4741 136.907 68.4494 136.335 69.4239 135.77C69.853 135.52 70.1649 135.109 70.291 134.628C70.4171 134.147 70.3471 133.636 70.0963 133.207C69.8481 132.786 69.4468 132.478 68.9765 132.348C68.4885 132.223 67.9714 132.291 67.5319 132.537L67.5295 132.536Z" fill="#232323"/>
<path d="M133.982 64.8491C133.418 65.8268 132.846 66.8013 132.282 67.7766C132.035 68.2153 131.967 68.7329 132.093 69.2205C132.159 69.4578 132.271 69.6799 132.422 69.8741C132.574 70.0682 132.762 70.2307 132.976 70.3521C133.19 70.4734 133.426 70.5514 133.671 70.5816C133.915 70.6117 134.163 70.5934 134.4 70.5277C134.868 70.3914 135.267 70.0849 135.52 69.6687C136.085 68.6918 136.656 67.7165 137.22 66.742C137.468 66.3034 137.536 65.7857 137.409 65.2981C137.344 65.0607 137.232 64.8385 137.081 64.6442C136.93 64.4499 136.742 64.2873 136.528 64.1657C136.314 64.0441 136.078 63.9659 135.833 63.9355C135.589 63.9051 135.341 63.9231 135.104 63.9886C134.636 64.1252 134.237 64.4316 133.984 64.8475L133.982 64.8491Z" fill="#232323"/>
<path d="M84.3965 150.747C83.8319 151.724 83.2603 152.699 82.6965 153.673C82.4489 154.112 82.3811 154.63 82.5076 155.118C82.6406 155.587 82.9479 155.988 83.3665 156.238C83.5828 156.363 83.8217 156.444 84.0696 156.477C84.3174 156.509 84.5692 156.492 84.8104 156.427C85.2779 156.291 85.6774 155.984 85.9302 155.568C86.4947 154.591 87.0663 153.616 87.6309 152.641C87.8783 152.202 87.9458 151.685 87.8191 151.197C87.7538 150.96 87.6424 150.738 87.4912 150.543C87.3399 150.349 87.1519 150.187 86.9379 150.065C86.7238 149.943 86.4879 149.865 86.2435 149.835C85.9992 149.804 85.7513 149.822 85.514 149.888C85.0464 150.024 84.6469 150.33 84.3942 150.747H84.3965Z" fill="#232323"/>
<path d="M64.5983 86.1796C65.5759 86.7434 66.5505 87.315 67.525 87.8796C67.9641 88.1266 68.4818 88.1943 68.9696 88.0685C69.207 88.0032 69.4292 87.8916 69.6235 87.7403C69.8178 87.589 69.9803 87.4009 70.1019 87.1868C70.2234 86.9726 70.3016 86.7366 70.3318 86.4923C70.3621 86.2479 70.344 86 70.2784 85.7626C70.1421 85.2951 69.8357 84.8956 69.4194 84.6428C68.4425 84.0782 67.4672 83.5066 66.4927 82.9429C66.0541 82.6952 65.5364 82.6275 65.0488 82.7539C64.8115 82.8192 64.5893 82.9306 64.395 83.0818C64.2007 83.233 64.0381 83.4211 63.9165 83.6351C63.7949 83.8492 63.7166 84.0851 63.6862 84.3295C63.6558 84.5738 63.6739 84.8217 63.7393 85.059C63.8758 85.5266 64.1822 85.9263 64.5983 86.1796Z" fill="#232323"/>
<path d="M150.495 135.772C151.472 136.336 152.447 136.908 153.422 137.473C153.861 137.72 154.379 137.788 154.867 137.661C155.104 137.595 155.326 137.484 155.52 137.333C155.714 137.181 155.877 136.993 155.999 136.779C156.12 136.565 156.198 136.329 156.229 136.085C156.259 135.841 156.241 135.593 156.175 135.356C156.039 134.888 155.733 134.489 155.316 134.236C154.34 133.671 153.364 133.1 152.39 132.536C151.951 132.288 151.433 132.22 150.945 132.347C150.476 132.48 150.075 132.787 149.825 133.206C149.7 133.422 149.619 133.661 149.586 133.909C149.554 134.157 149.571 134.409 149.636 134.65C149.773 135.117 150.079 135.517 150.495 135.77V135.772Z" fill="#232323"/>
</g>
<defs>
<clipPath id="clip0_615_2500">
<rect width="160" height="160.423" fill="white" transform="translate(30 30)"/>
</clipPath>
</defs>
</svg>
