<svg width="220" height="220" viewBox="0 0 220 220" fill="none" xmlns="http://www.w3.org/2000/svg">
<g clip-path="url(#clip0_615_2295)">
<path d="M48.7912 103.839C51.2558 102.97 53.667 101.957 56.0122 100.804C56.6878 100.467 57.3601 100.123 58.0292 99.7714C59.1057 99.2098 60.7906 99.0944 62.6309 99.1643L62.7925 99.1703C62.7724 109.819 62.7457 122.54 62.7348 130.201C62.7329 131.209 63.0603 132.191 63.6672 132.996C64.2741 133.801 65.1274 134.386 66.0973 134.662C72.5836 131.476 78.5442 126.727 84.798 122.951C87.5855 121.267 91.2686 119.775 93.8587 121.984C94.3941 122.467 94.8242 123.055 95.1221 123.712C95.4201 124.369 95.5795 125.08 95.5904 125.801C95.696 128.404 94.4009 130.689 92.9638 132.756C89.4422 137.826 85.8909 141.117 82.2345 144.596C82.3972 145.397 82.5193 146.053 82.5606 146.371C83.0712 150.271 83.9255 156.799 83.4956 158.952C82.9643 161.611 81.781 164.356 79.3317 165.517C76.8824 166.678 73.4986 165.853 72.3001 163.42L72.212 163.242L72.1707 164.105C72.0299 166.732 69.7166 170.792 68.6279 171.785C68.1005 172.303 67.4439 172.67 66.7266 172.849C66.0092 173.027 65.2571 173.011 64.5484 172.8C64.2592 172.693 63.9856 172.548 63.7348 172.368C63.0532 174.011 62.2101 175.581 61.2181 177.057C58.402 182.199 49.5501 186.514 41.691 192.426C38.4123 194.018 10.6071 181.586 11.4729 176.773C11.4729 176.773 11.5561 175.978 11.598 175.849C18.8415 152.078 16.9186 138.24 27.3042 115.72C28.4989 113.109 30.5575 110.989 33.133 109.719C38.6388 107.031 43.6187 105.702 48.7912 103.839Z" fill="white"/>
<path d="M63.1802 173.746C63.9511 174.185 64.821 174.42 65.7081 174.43C66.5951 174.439 67.47 174.223 68.2501 173.801C69.3176 173.223 70.2108 172.37 70.8366 171.33C71.5078 170.316 72.0813 169.24 72.5494 168.118C73.1355 166.852 73.5006 165.494 73.629 164.105C73.6267 163.719 73.4725 163.35 73.1997 163.077C72.9269 162.804 72.5576 162.65 72.1718 162.647C71.788 162.656 71.4224 162.812 71.1509 163.084C70.8795 163.355 70.7232 163.721 70.7146 164.105C70.7181 164.239 70.7059 164.372 70.6781 164.504C70.7935 164.151 70.6842 164.428 70.6648 164.533C70.6168 164.79 70.5561 165.044 70.4863 165.295C70.3329 165.835 70.149 166.365 69.9356 166.883C70.057 166.579 69.918 166.924 69.8894 166.989C69.8234 167.139 69.755 167.289 69.6842 167.437C69.5628 167.693 69.4365 167.946 69.3053 168.197C69.0691 168.647 68.8196 169.09 68.5446 169.52C68.4292 169.702 68.3102 169.884 68.1869 170.06C68.1177 170.159 68.0461 170.255 67.9756 170.352C67.7935 170.602 68.1948 170.099 68.0024 170.316C67.8955 170.437 67.7959 170.562 67.6818 170.675C67.6065 170.749 67.5275 170.819 67.4468 170.887C67.366 170.955 67.3782 170.944 67.4765 170.866C67.4031 170.919 67.329 170.97 67.2531 171.019C67.139 171.092 67.022 171.161 66.9022 171.224C66.8226 171.267 66.7413 171.306 66.6593 171.346C66.8008 171.289 66.7923 171.29 66.6326 171.352C66.5045 171.391 66.3782 171.436 66.2476 171.469C66.173 171.488 65.6587 171.541 65.9799 171.53C65.8469 171.535 65.7176 171.544 65.584 171.541C65.4966 171.541 65.4091 171.533 65.3217 171.524C65.4911 171.547 65.4905 171.543 65.3187 171.511C65.1918 171.471 65.0618 171.445 64.9368 171.398C65.173 171.486 64.7042 171.266 64.6538 171.235C64.4886 171.139 64.306 171.076 64.1164 171.049C63.9268 171.023 63.7339 171.035 63.5488 171.084C63.3637 171.132 63.1899 171.217 63.0375 171.332C62.885 171.448 62.7568 171.592 62.6602 171.758C62.5636 171.923 62.5005 172.106 62.4745 172.295C62.4485 172.485 62.46 172.678 62.5085 172.863C62.5571 173.048 62.6416 173.222 62.7572 173.374C62.8729 173.527 63.0175 173.655 63.1827 173.751L63.1802 173.746Z" fill="#232323"/>
<path d="M68.9633 159.195C69.7162 161.624 70.63 164.538 72.7526 166.136C73.8325 166.912 75.1064 167.373 76.4328 167.469C77.7592 167.564 79.086 167.289 80.2657 166.676C82.8298 165.334 84.1995 162.475 84.8116 159.769C85.3028 157.595 85.0301 155.289 84.8201 153.097C84.5777 150.09 84.1794 147.097 83.627 144.132C83.5761 143.947 83.4894 143.774 83.3718 143.623C83.2542 143.472 83.108 143.346 82.9416 143.252C82.7751 143.157 82.5917 143.096 82.4018 143.073C82.2118 143.049 82.0191 143.063 81.8346 143.114C81.6501 143.165 81.4774 143.252 81.3264 143.369C81.1754 143.487 81.0491 143.633 80.9546 143.799C80.8601 143.966 80.7993 144.149 80.7757 144.339C80.7521 144.529 80.7661 144.722 80.817 144.906C81.242 147.003 81.477 149.127 81.7332 151.441C82.0273 153.562 82.1663 155.702 82.1491 157.843C82.1437 158.003 82.1291 158.164 82.1224 158.324C82.106 158.709 82.1746 158.184 82.1024 158.512C81.9706 159.109 81.8377 159.7 81.6506 160.282C81.3543 161.304 80.8497 162.254 80.1686 163.072C79.5601 163.784 78.7355 164.277 77.8206 164.477C76.9057 164.676 75.9507 164.571 75.1011 164.177C73.0975 163.228 72.3689 160.345 71.7733 158.421C71.2201 156.634 68.4059 157.396 68.9633 159.195Z" fill="#232323"/>
<path d="M45.7852 126.011C47.8528 129.495 49.833 133.028 51.7257 136.611C51.9222 136.942 52.2415 137.182 52.6139 137.278C52.9863 137.374 53.3817 137.319 53.7138 137.125C54.0459 136.931 54.2878 136.613 54.3867 136.242C54.4856 135.87 54.4335 135.474 54.2418 135.141C52.3499 131.558 50.3697 128.025 48.3013 124.54C48.2047 124.374 48.0765 124.23 47.924 124.114C47.7716 123.998 47.5978 123.914 47.4127 123.865C47.2276 123.817 47.0347 123.805 46.8451 123.831C46.6555 123.857 46.4729 123.921 46.3077 124.017C46.1425 124.114 45.9979 124.242 45.8822 124.394C45.7666 124.547 45.6821 124.721 45.6335 124.906C45.585 125.091 45.5735 125.284 45.5995 125.473C45.6255 125.663 45.6886 125.846 45.7852 126.011Z" fill="#232323"/>
<path d="M51.7093 132.492C53.9961 131.074 56.1645 129.474 58.1932 127.706C59.158 126.862 60.0876 125.977 60.9862 125.063C61.4537 124.588 61.9133 124.106 62.3651 123.616C62.5988 123.363 62.8259 123.101 63.0688 122.856C63.1732 122.75 63.2868 122.654 63.3912 122.552C63.6177 122.327 63.2698 122.627 63.4519 122.502C63.7782 122.301 64.0144 121.981 64.1117 121.61C64.209 121.239 64.16 120.845 63.9747 120.509C63.7773 120.177 63.4577 119.937 63.0847 119.839C62.7117 119.741 62.3152 119.794 61.9807 119.986C60.9927 120.784 60.0849 121.677 59.2703 122.651C58.3529 123.6 57.4039 124.519 56.4167 125.396C54.491 127.095 52.4247 128.627 50.24 129.976C48.651 130.966 50.1125 133.488 51.7105 132.492H51.7093Z" fill="#232323"/>
<path d="M62.6363 97.7074C60.9046 97.6516 59.0619 97.6837 57.465 98.436C55.7553 99.2387 54.1062 100.149 52.3649 100.896C48.9647 102.353 45.4304 103.452 41.9343 104.643C40.1784 105.241 38.431 105.863 36.7127 106.558C34.9115 107.223 33.1645 108.026 31.4874 108.96C30.0942 109.795 28.8606 110.87 27.8444 112.137C26.7712 113.573 25.8914 115.143 25.2275 116.808C22.47 123.048 20.2851 129.526 18.6999 136.161C17.2919 142.062 16.321 148.051 15.233 154.015C14.0484 160.783 12.505 167.482 10.6094 174.085C10.3632 174.827 10.1804 175.588 10.063 176.36C10.0514 176.454 10.0375 176.552 10.0296 176.647L10.0198 176.739C10.0781 176.305 10.0743 176.333 10.0083 176.821C10.0003 176.921 9.99809 177.021 10.0016 177.121C10.0452 177.735 10.2375 178.33 10.562 178.853C11.3078 179.987 12.2543 180.974 13.355 181.768C16.5592 184.178 20.0066 186.247 23.641 187.941C27.4042 189.832 31.2956 191.456 35.2865 192.802C36.6415 193.276 38.0334 193.637 39.448 193.881C40.0026 193.986 40.567 194.029 41.1311 194.011C42.224 193.937 42.8918 193.327 43.7674 192.693C46.7328 190.552 49.8239 188.596 52.853 186.549C55.4925 184.887 57.952 182.955 60.1918 180.784C61.0776 179.887 61.8447 178.881 62.4742 177.788C63.3904 176.149 60.8737 174.679 59.9575 176.318C58.7431 178.485 56.7182 180.179 54.7292 181.67C52.1013 183.64 49.3193 185.396 46.5889 187.217C45.0661 188.233 43.553 189.264 42.0716 190.34C41.9987 190.393 40.9374 191.133 40.9532 191.165C40.9532 191.165 41.4207 190.983 41.0971 191.092C40.8323 191.181 41.0746 191.072 41.2337 191.086C41.1317 191.077 41.0114 191.104 40.9082 191.106C40.7127 191.11 40.5184 191.094 40.3241 191.079C40.1978 191.07 39.768 190.986 40.2634 191.079C40.1134 191.051 39.9598 191.032 39.8117 191.005C39.1796 190.889 38.5555 190.734 37.9368 190.563C34.4318 189.543 31.0154 188.24 27.7212 186.666C24.0468 185.035 20.507 183.116 17.1346 180.927C16.7784 180.689 16.4259 180.447 16.0769 180.199C15.9118 180.077 15.7491 179.956 15.5857 179.838C15.525 179.791 15.4595 179.743 15.3969 179.696C15.672 179.905 15.3635 179.669 15.3271 179.64C14.7881 179.218 14.2761 178.762 13.794 178.276C13.6118 178.09 13.4473 177.895 13.2791 177.699C13.0866 177.473 13.4752 177.986 13.3168 177.745C13.2894 177.704 13.256 177.666 13.2305 177.624C13.1571 177.502 13.0818 177.388 13.0101 177.267C12.9695 177.199 12.8365 176.88 12.9452 177.155C13.0539 177.43 12.9452 177.12 12.9209 177.053C12.8778 176.931 12.8329 176.535 12.9142 177.124C12.9033 177.046 12.8869 176.683 12.896 177.018C12.9081 177.476 12.9415 176.644 12.9567 176.517C12.9791 176.328 13.022 176.142 13.0848 175.962C13.3514 175.051 13.6252 174.15 13.8826 173.24C14.3712 171.514 14.8304 169.779 15.2603 168.037C16.0381 164.889 16.7175 161.717 17.3368 158.534C18.4595 152.756 19.3672 146.937 20.5645 141.174C21.795 135.091 23.5067 129.115 25.6835 123.303C26.2943 121.697 26.944 120.107 27.6325 118.533C28.2153 117.001 28.9789 115.545 29.907 114.194C31.9398 111.532 35.1116 110.294 38.1347 109.108C41.4134 107.82 44.7868 106.785 48.1135 105.623C51.6399 104.403 55.0752 102.934 58.3934 101.227C59.7055 100.547 61.1864 100.575 62.6363 100.62C64.5124 100.681 64.51 97.7663 62.6363 97.7056V97.7074Z" fill="#232323"/>
<path d="M118.708 41.5785C111.762 41.5785 79.8018 41.5178 67.7149 41.4868C66.491 41.4833 65.3155 41.9648 64.4459 42.826C63.5762 43.6873 63.0833 44.858 63.0749 46.0819C63.0009 57.0376 62.8248 77.5726 62.8248 82.2933C62.8248 89.5258 62.761 117.176 62.7422 130.199C62.7411 130.807 62.8598 131.409 63.0914 131.971C63.3231 132.533 63.6633 133.044 64.0925 133.474C64.5217 133.905 65.0315 134.247 65.5929 134.48C66.1542 134.714 66.756 134.834 67.3639 134.835C89.7077 134.867 182.871 135.063 204.315 135.107C204.825 135.108 205.33 135.009 205.802 134.815C206.274 134.62 206.703 134.335 207.064 133.975C207.425 133.615 207.712 133.187 207.908 132.716C208.103 132.244 208.204 131.739 208.205 131.229C208.221 118.692 208.288 89.7207 208.288 82.2915C208.288 77.6308 208.463 57.5543 208.539 46.5093C208.544 45.8997 208.428 45.2952 208.199 44.7304C207.969 44.1657 207.63 43.6519 207.201 43.2185C206.772 42.7851 206.262 42.4408 205.7 42.2052C205.138 41.9696 204.534 41.8474 203.925 41.8457C186.225 41.788 123.731 41.5785 118.708 41.5785Z" fill="white"/>
<path d="M118.71 40.1215C111.637 40.1215 104.564 40.1114 97.4909 40.0911C88.6396 40.0753 79.7883 40.0571 70.937 40.0365C68.9595 40.0316 66.8302 39.7802 65.002 40.6679C63.8224 41.2478 62.8649 42.1978 62.2758 43.3728C61.7689 44.539 61.5419 45.8076 61.6128 47.0772C61.5788 51.9608 61.5417 56.8445 61.5017 61.7281C61.441 69.2521 61.3717 76.7761 61.3651 84.3007C61.357 92.9795 61.3418 101.659 61.3195 110.338C61.3102 115.11 61.3013 119.883 61.2928 124.655C61.2892 126.625 61.1398 128.66 61.3019 130.623C61.4044 131.981 61.9558 133.266 62.8692 134.276C63.7827 135.285 65.0062 135.962 66.3469 136.2C67.5706 136.327 68.8023 136.36 70.0311 136.299L73.5175 136.305L82.2267 136.32L104.655 136.363C113.446 136.38 122.236 136.398 131.026 136.416L157.966 136.471L182.104 136.521L200.069 136.558C202.909 136.564 206.398 137.114 208.412 134.648C209.913 132.809 209.661 130.527 209.665 128.308C209.668 126.243 209.671 124.179 209.675 122.114C209.693 112.573 209.711 103.031 209.73 93.489C209.741 87.1137 209.741 80.7385 209.786 74.3632C209.82 69.365 209.857 64.3672 209.898 59.3699C209.918 56.8602 209.938 54.3492 209.959 51.8367C209.968 50.6673 209.976 49.4979 209.985 48.3285C210.081 47.1435 210.006 45.9508 209.76 44.7875C209.37 43.5025 208.573 42.3789 207.489 41.5858C206.405 40.7927 205.093 40.373 203.75 40.3898C202.559 40.3795 201.367 40.3819 200.175 40.3777L190.646 40.3461C182.448 40.3178 174.249 40.2905 166.05 40.2642C157.591 40.2362 149.132 40.2089 140.673 40.1822C134.609 40.1636 128.545 40.1456 122.481 40.1281C121.224 40.1237 119.967 40.1215 118.71 40.1215C116.835 40.1215 116.832 43.0359 118.71 43.0359C122.549 43.0359 126.387 43.0541 130.225 43.0656C137.671 43.0879 145.116 43.1114 152.561 43.1361C161.113 43.1632 169.664 43.1911 178.216 43.2198L199.386 43.2909L203.124 43.3036C203.852 43.2416 204.585 43.3454 205.267 43.6072C205.731 43.8288 206.134 44.1586 206.443 44.5688C206.753 44.979 206.959 45.4576 207.044 45.9642C207.137 46.9941 207.143 48.0299 207.063 49.0608C207.055 50.1865 207.047 51.3126 207.038 52.4391C207.019 54.9665 206.999 57.4943 206.978 60.0226C206.917 67.7943 206.832 75.566 206.828 83.3377C206.823 91.3264 206.81 99.3149 206.788 107.303C206.779 112.056 206.77 116.809 206.761 121.563C206.757 123.631 206.753 125.698 206.75 127.766C206.75 128.652 206.748 129.539 206.746 130.426C206.746 131.306 206.764 132.099 206.163 132.809C205.267 133.868 203.855 133.654 202.614 133.651L199.443 133.645L191.346 133.628L170.051 133.584L144.495 133.531L117.876 133.477L93.3196 133.428C86.931 133.416 80.542 133.404 74.1526 133.393C71.9874 133.39 69.8217 133.393 67.6559 133.383C67.194 133.409 66.7316 133.338 66.2993 133.173C65.867 133.008 65.4745 132.753 65.1476 132.426C64.8207 132.098 64.5668 131.705 64.4027 131.273C64.2385 130.84 64.1677 130.378 64.1951 129.916C64.189 127.955 64.2011 125.994 64.2048 124.034C64.221 114.471 64.239 104.908 64.2588 95.3463C64.2704 89.0002 64.2643 82.6565 64.305 76.3086C64.3669 66.766 64.4383 57.2235 64.5193 47.6813C64.526 46.7432 64.407 45.725 64.7883 44.8422C64.9953 44.3752 65.3111 43.9645 65.7093 43.6445C66.1076 43.3245 66.5766 43.1046 67.0773 43.0031C67.861 42.9067 68.6524 42.888 69.4398 42.9472L71.9571 42.9533C76.1101 42.9638 80.2629 42.9729 84.4155 42.9806C93.2947 42.9988 102.174 43.0144 111.053 43.0274C113.604 43.033 116.157 43.0359 118.71 43.0359C120.586 43.0359 120.589 40.1215 118.71 40.1215Z" fill="#232323"/>
<rect x="62.4062" y="41.5" width="146.091" height="94.2727" rx="2.5" fill="#FCFCFC" stroke="#232323" stroke-width="3"/>
<rect x="64" y="89" width="84" height="36" fill="#FFF0F5"/>
<rect x="64" y="67" width="143" height="22" fill="#FFF0F5"/>
<rect x="66.3672" y="107.182" width="78.1818" height="14.5455" rx="1" fill="#FCFCFC"/>
<path d="M64 45C64 43.8954 64.8954 43 66 43H205C206.105 43 207 43.8954 207 45V67H64V45Z" fill="#F8F8F8"/>
<path d="M73.9396 153.381C80.6452 145.006 86.8456 141.567 92.9694 132.757C94.4066 130.689 95.7017 128.404 95.596 125.801C95.5852 125.08 95.4258 124.369 95.1278 123.712C94.8299 123.056 94.3998 122.467 93.8644 121.984C91.2742 119.775 87.5912 121.267 84.8037 122.951C75.2815 128.701 66.4302 136.709 55.3828 138.016" fill="white"/>
<path d="M62.4738 177.791C64.7713 174.445 66.0002 170.505 67.6019 166.811C69.4165 162.567 71.7588 158.569 74.5734 154.911C79.7877 148.208 86.724 143.143 91.9894 136.494C94.6572 133.125 97.7799 129.087 96.8934 124.506C96.6932 123.461 96.2319 122.484 95.5525 121.665C94.8731 120.846 93.9977 120.212 93.0076 119.823C91.1612 119.103 89.0452 119.433 87.2437 120.126C85.3609 120.919 83.5632 121.901 81.8782 123.057C80.1387 124.171 78.4283 125.33 76.7173 126.484C73.3218 128.872 69.7864 131.053 66.1301 133.018C62.7179 134.768 58.8472 136.328 54.9807 136.6C53.5964 136.698 52.1526 136.192 50.7306 135.724C49.1519 135.203 47.6073 134.589 46.025 134.084C45.4509 133.888 44.8622 133.738 44.2643 133.635C43.8921 133.545 43.4995 133.6 43.1665 133.789C42.8334 133.978 42.585 134.287 42.4719 134.653C42.3721 135.025 42.4229 135.422 42.6133 135.758C42.8037 136.093 43.1184 136.34 43.4895 136.446C44.8617 136.726 46.2037 137.138 47.4968 137.676C49.0225 138.262 50.5796 138.764 52.1611 139.177C55.7039 140.02 59.5211 138.904 62.8472 137.651C70.4513 134.789 76.8618 129.697 83.6542 125.376C86.0221 123.871 90.5534 120.6 93.1582 123.33C94.3773 124.609 94.2911 126.586 93.7969 128.156C93.1897 130.094 91.8983 131.806 90.7003 133.419C85.7944 140.025 79.081 144.955 73.8126 151.24C70.5365 155.119 67.7971 159.42 65.6681 164.029C63.798 168.117 62.5217 172.586 59.9571 176.32C58.8927 177.869 61.4143 179.329 62.4738 177.791Z" fill="#232323"/>
<path d="M173.804 93.6362H161.046C160.77 93.6401 160.506 93.7515 160.311 93.9468C160.115 94.1421 160.004 94.4059 160 94.6821V107.439C160.004 107.715 160.115 107.979 160.311 108.174C160.506 108.37 160.77 108.481 161.046 108.485H173.804C174.08 108.481 174.343 108.37 174.539 108.174C174.734 107.979 174.845 107.715 174.849 107.439V94.6821C174.849 93.3374 172.758 93.3341 172.758 94.6821V107.439L173.804 106.394H161.046L162.092 107.439V94.6821L161.046 95.7279H173.804C175.148 95.7279 175.151 93.6362 173.804 93.6362Z" fill="#707070"/>
<path d="M177.125 94.6822V107.44C177.125 108.784 179.217 108.788 179.217 107.44V94.6822C179.217 93.3376 177.125 93.3339 177.125 94.6822Z" fill="#707070"/>
<path d="M173.807 110.46H161.049C159.704 110.46 159.701 112.552 161.049 112.552H173.807C175.151 112.552 175.155 110.46 173.807 110.46Z" fill="#707070"/>
<path d="M194.866 110.46H187.874C187.597 110.46 187.331 110.57 187.134 110.766C186.938 110.962 186.828 111.228 186.828 111.506C186.828 111.783 186.938 112.049 187.134 112.245C187.331 112.441 187.597 112.552 187.874 112.552H194.866C195.143 112.552 195.409 112.441 195.606 112.245C195.802 112.049 195.912 111.783 195.912 111.506C195.912 111.228 195.802 110.962 195.606 110.766C195.409 110.57 195.143 110.46 194.866 110.46Z" fill="#707070"/>
<path d="M177.978 112.552H184.168L183.122 111.506V117.695C183.126 117.971 183.238 118.235 183.433 118.43C183.628 118.626 183.892 118.737 184.168 118.741H190.358L189.312 117.695V123.896C189.312 125.24 191.404 125.244 191.404 123.896V117.695C191.4 117.419 191.288 117.155 191.093 116.96C190.898 116.765 190.634 116.653 190.358 116.649H184.168L185.214 117.695V111.506C185.21 111.23 185.099 110.966 184.903 110.771C184.708 110.575 184.444 110.464 184.168 110.46H177.978C176.634 110.46 176.63 112.552 177.978 112.552Z" fill="#707070"/>
<path d="M177.148 115.684V128.441C177.152 128.717 177.264 128.981 177.459 129.176C177.654 129.372 177.918 129.483 178.194 129.487H182.409C183.754 129.487 183.757 127.396 182.409 127.396H178.194L179.24 128.441V115.684C179.24 114.339 177.148 114.336 177.148 115.684Z" fill="#707070"/>
<path d="M186.408 129.487H194.871C195.147 129.483 195.411 129.372 195.606 129.177C195.801 128.981 195.913 128.718 195.917 128.442V119.515C195.917 118.17 193.825 118.167 193.825 119.515V128.442L194.871 127.396H186.408C185.064 127.396 185.06 129.487 186.408 129.487Z" fill="#707070"/>
<path d="M169.212 98.2289H165.64C165.363 98.2328 165.1 98.3443 164.904 98.5396C164.709 98.7349 164.598 98.9986 164.594 99.2747V102.847C164.598 103.123 164.709 103.387 164.904 103.582C165.1 103.777 165.363 103.889 165.64 103.893H169.212C169.488 103.889 169.752 103.777 169.947 103.582C170.142 103.387 170.254 103.123 170.258 102.847V99.2747C170.258 98.9973 170.147 98.7313 169.951 98.5352C169.755 98.3391 169.489 98.2289 169.212 98.2289C168.934 98.2289 168.668 98.3391 168.472 98.5352C168.276 98.7313 168.166 98.9973 168.166 99.2747V102.847L169.212 101.801H165.64L166.685 102.847V99.2743L165.64 100.32H169.212C169.349 100.32 169.485 100.293 169.612 100.241C169.739 100.188 169.854 100.111 169.951 100.014C170.048 99.9167 170.126 99.8015 170.178 99.6746C170.231 99.5477 170.258 99.4121 170.258 99.2747C170.258 99.1374 170.231 99.001 170.178 98.8741C170.126 98.7472 170.048 98.6323 169.951 98.5352C169.854 98.4381 169.739 98.3607 169.612 98.3081C169.485 98.2556 169.349 98.2289 169.212 98.2289Z" fill="#707070"/>
<path d="M195.318 93.6362H182.561C182.285 93.6401 182.022 93.7515 181.826 93.9468C181.631 94.1421 181.519 94.4059 181.516 94.6821V107.439C181.52 107.715 181.631 107.979 181.826 108.174C182.022 108.37 182.285 108.481 182.561 108.485H195.318C195.595 108.481 195.858 108.37 196.054 108.174C196.249 107.979 196.36 107.715 196.364 107.439C196.364 103.187 196.364 98.9346 196.364 94.6821C196.364 93.3374 194.273 93.3341 194.273 94.6821C194.273 98.9344 194.273 103.187 194.273 107.439L195.318 106.394H182.561L183.607 107.439V94.6821L182.561 95.7279H195.318C196.663 95.7279 196.667 93.6362 195.318 93.6362Z" fill="#707070"/>
<path d="M190.727 98.2289H187.155C186.879 98.2328 186.615 98.3443 186.42 98.5396C186.225 98.7349 186.113 98.9986 186.109 99.2747V102.847C186.113 103.123 186.225 103.387 186.42 103.582C186.615 103.777 186.879 103.889 187.155 103.893H190.727C191.004 103.889 191.267 103.777 191.463 103.582C191.658 103.387 191.769 103.123 191.773 102.847V99.2747C191.773 98.9973 191.663 98.7313 191.467 98.5352C191.271 98.3391 191.005 98.2289 190.727 98.2289C190.45 98.2289 190.184 98.3391 189.988 98.5352C189.792 98.7313 189.682 98.9973 189.682 99.2747V102.847L190.727 101.801H187.155L188.201 102.847V99.2743L187.155 100.32H190.727C190.865 100.32 191.001 100.293 191.128 100.241C191.255 100.188 191.37 100.111 191.467 100.014C191.564 99.9167 191.641 99.8015 191.694 99.6746C191.746 99.5477 191.773 99.4121 191.773 99.2747C191.773 99.1374 191.746 99.001 191.694 98.8741C191.641 98.7472 191.564 98.6323 191.467 98.5352C191.37 98.4381 191.255 98.3607 191.128 98.3081C191.001 98.2556 190.865 98.2289 190.727 98.2289Z" fill="#707070"/>
<path d="M186.191 120.99H182.804C182.527 120.994 182.264 121.106 182.068 121.301C181.873 121.496 181.762 121.76 181.758 122.036V123.56C181.762 123.836 181.873 124.099 182.069 124.295C182.264 124.49 182.528 124.601 182.804 124.605H186.191C186.468 124.601 186.731 124.49 186.927 124.295C187.122 124.099 187.233 123.836 187.237 123.56V122.036C187.237 121.759 187.127 121.493 186.931 121.297C186.735 121.1 186.469 120.99 186.191 120.99C185.914 120.99 185.648 121.1 185.452 121.297C185.256 121.493 185.146 121.759 185.146 122.036V123.56L186.191 122.514H182.804L183.849 123.56V122.036L182.804 123.082H186.191C186.329 123.082 186.465 123.055 186.592 123.002C186.719 122.95 186.834 122.873 186.931 122.776C187.028 122.678 187.105 122.563 187.158 122.436C187.21 122.309 187.237 122.173 187.237 122.036C187.237 121.899 187.21 121.763 187.158 121.636C187.105 121.509 187.028 121.394 186.931 121.297C186.834 121.199 186.719 121.122 186.592 121.07C186.465 121.017 186.329 120.99 186.191 120.99Z" fill="#707070"/>
<path d="M189.312 111.563V113.587C189.316 113.863 189.426 114.128 189.619 114.326C189.716 114.423 189.831 114.501 189.958 114.553C190.085 114.606 190.221 114.633 190.358 114.633C190.496 114.633 190.632 114.606 190.759 114.553C190.885 114.501 191.001 114.423 191.098 114.326C191.29 114.128 191.4 113.863 191.404 113.587V111.563C191.401 111.287 191.291 111.022 191.098 110.824C191.001 110.727 190.885 110.65 190.759 110.597C190.632 110.545 190.496 110.518 190.358 110.518C190.221 110.518 190.085 110.545 189.958 110.597C189.831 110.65 189.716 110.727 189.619 110.824C189.426 111.022 189.317 111.287 189.312 111.563Z" fill="#707070"/>
<path d="M193.82 111.563V115.697C193.82 115.974 193.93 116.24 194.127 116.436C194.323 116.632 194.589 116.743 194.866 116.743C195.144 116.743 195.41 116.632 195.606 116.436C195.802 116.24 195.912 115.974 195.912 115.697V111.563C195.912 111.286 195.802 111.02 195.606 110.824C195.41 110.628 195.144 110.518 194.866 110.518C194.589 110.518 194.323 110.628 194.127 110.824C193.93 111.02 193.82 111.286 193.82 111.563Z" fill="#707070"/>
<path d="M173.804 114.639H161.046C160.77 114.643 160.506 114.754 160.311 114.949C160.115 115.145 160.004 115.408 160 115.685V128.442C160.004 128.718 160.115 128.982 160.311 129.177C160.506 129.372 160.77 129.484 161.046 129.488H173.804C174.08 129.484 174.343 129.372 174.539 129.177C174.734 128.982 174.845 128.718 174.849 128.442V115.685C174.849 114.34 172.758 114.336 172.758 115.685V128.442L173.804 127.396H161.046L162.092 128.442V115.685L161.046 116.73H173.804C175.148 116.73 175.151 114.639 173.804 114.639Z" fill="#707070"/>
<path d="M169.212 119.231H165.64C165.363 119.235 165.1 119.346 164.904 119.542C164.709 119.737 164.598 120.001 164.594 120.277V123.849C164.598 124.125 164.709 124.389 164.904 124.584C165.1 124.779 165.363 124.891 165.64 124.895H169.212C169.488 124.891 169.752 124.779 169.947 124.584C170.142 124.389 170.254 124.125 170.258 123.849V120.277C170.258 119.999 170.147 119.733 169.951 119.537C169.755 119.341 169.489 119.231 169.212 119.231C168.934 119.231 168.668 119.341 168.472 119.537C168.276 119.733 168.166 119.999 168.166 120.277V123.849L169.212 122.803H165.64L166.685 123.849V120.277L165.64 121.323H169.212C169.489 121.323 169.755 121.212 169.951 121.016C170.147 120.82 170.258 120.554 170.258 120.277C170.258 119.999 170.147 119.733 169.951 119.537C169.755 119.341 169.489 119.231 169.212 119.231Z" fill="#707070"/>
</g>
<defs>
<clipPath id="clip0_615_2295">
<rect width="200" height="154.022" fill="white" transform="translate(10 40)"/>
</clipPath>
</defs>
</svg>
